<svg xmlns="http://www.w3.org/2000/svg" width="1220" height="840" viewBox="0 0 1220 840" role="img" aria-label="School-year work faded fast">
  <defs>
    <linearGradient id="bgFade" x1="0" x2="1" y1="0" y2="1">
      <stop offset="0%" stop-color="#FFFDF8"/>
      <stop offset="100%" stop-color="#F7F2E8"/>
    </linearGradient>
    <filter id="softShadow" x="-20%" y="-20%" width="140%" height="140%">
      <feDropShadow dx="0" dy="8" stdDeviation="12" flood-color="#0D1321" flood-opacity="0.10"/>
    </filter>
  </defs>
  <rect x="0" y="0" width="1220" height="840" rx="30" fill="url(#bgFade)"/>
  <g filter="url(#softShadow)">
    <rect x="22" y="22" width="1176" height="796" rx="24" fill="white" opacity="0.88"/>
  </g>
  <text x="52" y="72" font-size="30" font-family="Georgia, 'Times New Roman', serif" font-weight="700" fill="#101828">School-year work faded fast</text>
  <text x="52" y="102" font-size="14" font-family="Arial, Helvetica, sans-serif" fill="#475467">Teen labor force participation fell from the late-1970s peak into the mid-2010s and remains far below its old baseline.</text>
  <text x="110.0" y="132.0" font-size="13" font-family="Arial, Helvetica, sans-serif" fill="#667085" font-weight="400" text-anchor="start">Teen labor force participation, annual averages</text>
  <text x="110.0" y="154.0" font-size="18" font-family="Arial, Helvetica, sans-serif" fill="#101828" font-weight="700" text-anchor="start">The school-year labor market for 16- to 19-year-olds lost its postwar baseline.</text>
  <text x="110.0" y="178.0" font-size="13" font-family="Arial, Helvetica, sans-serif" fill="#667085" font-weight="400" text-anchor="start">Annual average series from BLS MLR. Highlighted markers: 1979 peak, 1989, 2015.</text>
  <line x1="110" y1="170.0" x2="1120" y2="170.0" stroke="#E5E7EB" stroke-width="1"/>
  <text x="94.0" y="174.0" font-size="11" font-family="Arial, Helvetica, sans-serif" fill="#667085" font-weight="400" text-anchor="end">60%</text>
  <line x1="110" y1="241.7" x2="1120" y2="241.7" stroke="#E5E7EB" stroke-width="1"/>
  <text x="94.0" y="245.7" font-size="11" font-family="Arial, Helvetica, sans-serif" fill="#667085" font-weight="400" text-anchor="end">55%</text>
  <line x1="110" y1="313.3" x2="1120" y2="313.3" stroke="#E5E7EB" stroke-width="1"/>
  <text x="94.0" y="317.3" font-size="11" font-family="Arial, Helvetica, sans-serif" fill="#667085" font-weight="400" text-anchor="end">50%</text>
  <line x1="110" y1="385.0" x2="1120" y2="385.0" stroke="#E5E7EB" stroke-width="1"/>
  <text x="94.0" y="389.0" font-size="11" font-family="Arial, Helvetica, sans-serif" fill="#667085" font-weight="400" text-anchor="end">45%</text>
  <line x1="110" y1="456.7" x2="1120" y2="456.7" stroke="#E5E7EB" stroke-width="1"/>
  <text x="94.0" y="460.7" font-size="11" font-family="Arial, Helvetica, sans-serif" fill="#667085" font-weight="400" text-anchor="end">40%</text>
  <line x1="110" y1="528.3" x2="1120" y2="528.3" stroke="#E5E7EB" stroke-width="1"/>
  <text x="94.0" y="532.3" font-size="11" font-family="Arial, Helvetica, sans-serif" fill="#667085" font-weight="400" text-anchor="end">35%</text>
  <line x1="110" y1="600.0" x2="1120" y2="600.0" stroke="#E5E7EB" stroke-width="1"/>
  <text x="94.0" y="604.0" font-size="11" font-family="Arial, Helvetica, sans-serif" fill="#667085" font-weight="400" text-anchor="end">30%</text>
  <line x1="140.1" y1="170" x2="140.1" y2="600" stroke="#F2F4F7" stroke-width="1"/>
  <text x="140.1" y="624.0" font-size="10" font-family="Arial, Helvetica, sans-serif" fill="#667085" font-weight="400" text-anchor="middle">1950</text>
  <line x1="290.9" y1="170" x2="290.9" y2="600" stroke="#F2F4F7" stroke-width="1"/>
  <text x="290.9" y="624.0" font-size="10" font-family="Arial, Helvetica, sans-serif" fill="#667085" font-weight="400" text-anchor="middle">1960</text>
  <line x1="441.6" y1="170" x2="441.6" y2="600" stroke="#F2F4F7" stroke-width="1"/>
  <text x="441.6" y="624.0" font-size="10" font-family="Arial, Helvetica, sans-serif" fill="#667085" font-weight="400" text-anchor="middle">1970</text>
  <line x1="592.4" y1="170" x2="592.4" y2="600" stroke="#F2F4F7" stroke-width="1"/>
  <text x="592.4" y="624.0" font-size="10" font-family="Arial, Helvetica, sans-serif" fill="#667085" font-weight="400" text-anchor="middle">1980</text>
  <line x1="743.1" y1="170" x2="743.1" y2="600" stroke="#F2F4F7" stroke-width="1"/>
  <text x="743.1" y="624.0" font-size="10" font-family="Arial, Helvetica, sans-serif" fill="#667085" font-weight="400" text-anchor="middle">1990</text>
  <line x1="893.9" y1="170" x2="893.9" y2="600" stroke="#F2F4F7" stroke-width="1"/>
  <text x="893.9" y="624.0" font-size="10" font-family="Arial, Helvetica, sans-serif" fill="#667085" font-weight="400" text-anchor="middle">2000</text>
  <line x1="1044.6" y1="170" x2="1044.6" y2="600" stroke="#F2F4F7" stroke-width="1"/>
  <text x="1044.6" y="624.0" font-size="10" font-family="Arial, Helvetica, sans-serif" fill="#667085" font-weight="400" text-anchor="middle">2010</text>
  <polyline points="110.0,277.5 140.1,287.5 215.5,329.1 290.9,349.2 336.1,382.1 351.2,392.2 381.3,339.1 426.6,321.9 441.6,314.8 471.8,286.1 486.9,260.3 501.9,244.5 532.1,248.8 547.2,227.3 562.2,201.5 577.3,200.1 592.4,217.3 637.6,263.2 667.8,248.8 728.1,228.8 743.1,260.3 788.4,291.8 818.5,263.2 878.8,284.7 893.9,284.7 909.0,319.1 939.1,392.2 954.2,400.8 999.4,438.0 1014.5,453.8 1029.6,492.5 1044.6,529.8 1059.7,541.2 1104.9,542.7 1120.0,538.4" fill="none" stroke="#244A71" stroke-width="4"/>
  <circle cx="110.0" cy="277.5" r="4.5" fill="#244A71"/>
  <circle cx="140.1" cy="287.5" r="4.5" fill="#244A71"/>
  <circle cx="215.5" cy="329.1" r="4.5" fill="#244A71"/>
  <circle cx="290.9" cy="349.2" r="4.5" fill="#244A71"/>
  <circle cx="336.1" cy="382.1" r="4.5" fill="#244A71"/>
  <circle cx="351.2" cy="392.2" r="4.5" fill="#244A71"/>
  <circle cx="381.3" cy="339.1" r="4.5" fill="#244A71"/>
  <circle cx="426.6" cy="321.9" r="4.5" fill="#244A71"/>
  <circle cx="441.6" cy="314.8" r="4.5" fill="#244A71"/>
  <circle cx="471.8" cy="286.1" r="4.5" fill="#244A71"/>
  <circle cx="486.9" cy="260.3" r="4.5" fill="#244A71"/>
  <circle cx="501.9" cy="244.5" r="4.5" fill="#244A71"/>
  <circle cx="532.1" cy="248.8" r="4.5" fill="#244A71"/>
  <circle cx="547.2" cy="227.3" r="4.5" fill="#244A71"/>
  <circle cx="562.2" cy="201.5" r="4.5" fill="#244A71"/>
  <circle cx="577.3" cy="200.1" r="4.5" fill="#244A71"/>
  <circle cx="592.4" cy="217.3" r="4.5" fill="#244A71"/>
  <circle cx="637.6" cy="263.2" r="4.5" fill="#244A71"/>
  <circle cx="667.8" cy="248.8" r="4.5" fill="#244A71"/>
  <circle cx="728.1" cy="228.8" r="4.5" fill="#244A71"/>
  <circle cx="743.1" cy="260.3" r="4.5" fill="#244A71"/>
  <circle cx="788.4" cy="291.8" r="4.5" fill="#244A71"/>
  <circle cx="818.5" cy="263.2" r="4.5" fill="#244A71"/>
  <circle cx="878.8" cy="284.7" r="4.5" fill="#244A71"/>
  <circle cx="893.9" cy="284.7" r="4.5" fill="#244A71"/>
  <circle cx="909.0" cy="319.1" r="4.5" fill="#244A71"/>
  <circle cx="939.1" cy="392.2" r="4.5" fill="#244A71"/>
  <circle cx="954.2" cy="400.8" r="4.5" fill="#244A71"/>
  <circle cx="999.4" cy="438.0" r="4.5" fill="#244A71"/>
  <circle cx="1014.5" cy="453.8" r="4.5" fill="#244A71"/>
  <circle cx="1029.6" cy="492.5" r="4.5" fill="#244A71"/>
  <circle cx="1044.6" cy="529.8" r="4.5" fill="#244A71"/>
  <circle cx="1059.7" cy="541.2" r="4.5" fill="#244A71"/>
  <circle cx="1104.9" cy="542.7" r="4.5" fill="#244A71"/>
  <circle cx="1120.0" cy="538.4" r="4.5" fill="#244A71"/>
  <circle cx="577.3" cy="200.1" r="10" fill="none" stroke="#C8971D" stroke-width="3"/>
  <text x="577.3" y="184.1" font-size="11" font-family="Arial, Helvetica, sans-serif" fill="#8A6400" font-weight="700" text-anchor="middle">1979 57.9%</text>
  <circle cx="728.1" cy="228.8" r="10" fill="none" stroke="#C8971D" stroke-width="3"/>
  <text x="728.1" y="212.8" font-size="11" font-family="Arial, Helvetica, sans-serif" fill="#8A6400" font-weight="700" text-anchor="middle">1989 55.9%</text>
  <circle cx="1120.0" cy="538.4" r="10" fill="none" stroke="#C8971D" stroke-width="3"/>
  <text x="1120.0" y="522.4" font-size="11" font-family="Arial, Helvetica, sans-serif" fill="#8A6400" font-weight="700" text-anchor="middle">2015 34.3%</text>
  <rect x="820" y="650" width="310" height="130" rx="22" fill="#FFF7EE" stroke="#F1E2C5"/>
  <text x="975.0" y="682.0" font-size="13" font-family="Arial, Helvetica, sans-serif" fill="#8A6400" font-weight="700" text-anchor="middle">Current BLS age table</text>
  <text x="975.0" y="722.0" font-size="34" font-family="Arial, Helvetica, sans-serif" fill="#244A71" font-weight="700" text-anchor="middle">36.9%</text>
  <text x="975.0" y="748.0" font-size="12" font-family="Arial, Helvetica, sans-serif" fill="#101828" font-weight="400" text-anchor="middle">16-19 labor force participation in 2024</text>
  <text x="975.0" y="772.0" font-size="11" font-family="Arial, Helvetica, sans-serif" fill="#667085" font-weight="400" text-anchor="middle">A separate BLS monthly series shows 37.4% in Mar. 2026.</text>
  <text x="110.0" y="788.0" font-size="11" font-family="Arial, Helvetica, sans-serif" fill="#667085" font-weight="400" text-anchor="start">Source: BLS Monthly Labor Review article on teen labor force participation; current 2024 age table and CPS monthly data from BLS.</text>
</svg>