<svg xmlns="http://www.w3.org/2000/svg" width="1220" height="1120" viewBox="0 0 1220 1120" role="img" aria-label="Teen age split, BLS A-8b">
  <defs>
    <linearGradient id="bgFade" x1="0" x2="1" y1="0" y2="1">
      <stop offset="0%" stop-color="#FFFDF8"/>
      <stop offset="100%" stop-color="#F7F2E8"/>
    </linearGradient>
    <filter id="softShadow" x="-20%" y="-20%" width="140%" height="140%">
      <feDropShadow dx="0" dy="8" stdDeviation="12" flood-color="#0D1321" flood-opacity="0.10"/>
    </filter>
  </defs>
  <rect x="0" y="0" width="1220" height="1120" rx="30" fill="url(#bgFade)"/>
  <g filter="url(#softShadow)">
    <rect x="22" y="22" width="1176" height="1076" rx="24" fill="white" opacity="0.88"/>
  </g>
  <text x="52" y="72" font-size="30" font-family="Georgia, 'Times New Roman', serif" font-weight="700" fill="#101828">Teen age split, BLS A-8b</text>
  <text x="52" y="102" font-size="14" font-family="Arial, Helvetica, sans-serif" fill="#475467">Four age bands, 2014 to current. The gap is most readable once 16-17 and 18-19 are separated.</text>
  <text x="110.0" y="132.0" font-size="13" font-family="Arial, Helvetica, sans-serif" fill="#667085" font-weight="400" text-anchor="start">A-8b teen age split</text>
  <text x="110.0" y="154.0" font-size="18" font-family="Arial, Helvetica, sans-serif" fill="#101828" font-weight="700" text-anchor="start">The teen transition is clearest once 16-17 and 18-19 are separated.</text>
  <text x="110.0" y="178.0" font-size="13" font-family="Arial, Helvetica, sans-serif" fill="#667085" font-weight="400" text-anchor="start">BLS A-8b seasonally adjusted participation rates, 2014 to current.</text>
  <rect x="60.0" y="150" width="538.0" height="320" rx="24" fill="#FFFFFF" stroke="#E5E7EB"/>
  <text x="78.0" y="178.0" font-size="19" font-family="Arial, Helvetica, sans-serif" fill="#101828" font-weight="700" text-anchor="start">16-17</text>
  <text x="580.0" y="178.0" font-size="12" font-family="Arial, Helvetica, sans-serif" fill="#4E8098" font-weight="700" text-anchor="end">22.6% → 24.9%</text>
  <text x="78.0" y="204.0" font-size="11" font-family="Arial, Helvetica, sans-serif" fill="#667085" font-weight="400" text-anchor="start">seasonally adjusted LFPR</text>
  <line x1="78.0" y1="382.0" x2="580.0" y2="382.0" stroke="#EEF2F7" stroke-width="1"/>
  <text x="70.0" y="386.0" font-size="10" font-family="Arial, Helvetica, sans-serif" fill="#667085" font-weight="400" text-anchor="end">20%</text>
  <line x1="78.0" y1="326.1" x2="580.0" y2="326.1" stroke="#EEF2F7" stroke-width="1"/>
  <text x="70.0" y="330.1" font-size="10" font-family="Arial, Helvetica, sans-serif" fill="#667085" font-weight="400" text-anchor="end">40%</text>
  <line x1="78.0" y1="270.2" x2="580.0" y2="270.2" stroke="#EEF2F7" stroke-width="1"/>
  <text x="70.0" y="274.2" font-size="10" font-family="Arial, Helvetica, sans-serif" fill="#667085" font-weight="400" text-anchor="end">60%</text>
  <line x1="78.0" y1="214.4" x2="580.0" y2="214.4" stroke="#EEF2F7" stroke-width="1"/>
  <text x="70.0" y="218.4" font-size="10" font-family="Arial, Helvetica, sans-serif" fill="#667085" font-weight="400" text-anchor="end">80%</text>
  <line x1="78.0" y1="192" x2="78.0" y2="382" stroke="#F8FAFC" stroke-width="1"/>
  <text x="78.0" y="404.0" font-size="10" font-family="Arial, Helvetica, sans-serif" fill="#667085" font-weight="400" text-anchor="middle">2014</text>
  <line x1="161.1" y1="192" x2="161.1" y2="382" stroke="#F8FAFC" stroke-width="1"/>
  <text x="161.1" y="404.0" font-size="10" font-family="Arial, Helvetica, sans-serif" fill="#667085" font-weight="400" text-anchor="middle">2016</text>
  <line x1="244.2" y1="192" x2="244.2" y2="382" stroke="#F8FAFC" stroke-width="1"/>
  <text x="244.2" y="404.0" font-size="10" font-family="Arial, Helvetica, sans-serif" fill="#667085" font-weight="400" text-anchor="middle">2018</text>
  <line x1="327.3" y1="192" x2="327.3" y2="382" stroke="#F8FAFC" stroke-width="1"/>
  <text x="327.3" y="404.0" font-size="10" font-family="Arial, Helvetica, sans-serif" fill="#667085" font-weight="400" text-anchor="middle">2020</text>
  <line x1="410.4" y1="192" x2="410.4" y2="382" stroke="#F8FAFC" stroke-width="1"/>
  <text x="410.4" y="404.0" font-size="10" font-family="Arial, Helvetica, sans-serif" fill="#667085" font-weight="400" text-anchor="middle">2022</text>
  <line x1="493.4" y1="192" x2="493.4" y2="382" stroke="#F8FAFC" stroke-width="1"/>
  <text x="493.4" y="404.0" font-size="10" font-family="Arial, Helvetica, sans-serif" fill="#667085" font-weight="400" text-anchor="middle">2024</text>
  <line x1="576.5" y1="192" x2="576.5" y2="382" stroke="#F8FAFC" stroke-width="1"/>
  <text x="576.5" y="404.0" font-size="10" font-family="Arial, Helvetica, sans-serif" fill="#667085" font-weight="400" text-anchor="middle">2026</text>
  <polyline points="78.0,374.7 81.5,378.4 84.9,376.1 88.4,380.0 91.8,377.2 95.3,377.5 98.8,375.0 102.2,375.3 105.7,378.9 109.2,372.2 112.6,373.3 116.1,372.5 119.5,373.6 123.0,375.0 126.5,375.9 129.9,373.9 133.4,372.2 136.9,375.0 140.3,375.3 143.8,374.7 147.2,376.7 150.7,376.7 154.2,377.8 157.6,374.2 161.1,373.1 164.6,371.9 168.0,372.8 171.5,371.9 174.9,370.3 178.4,369.1 181.9,370.3 185.3,369.4 188.8,369.7 192.2,373.9 195.7,376.4 199.2,373.1 202.6,370.8 206.1,371.4 209.6,365.5 213.0,366.6 216.5,368.3 219.9,366.1 223.4,369.7 226.9,368.3 230.3,368.3 233.8,371.7 237.3,369.1 240.7,371.1 244.2,369.7 247.6,368.9 251.1,368.9 254.6,371.9 258.0,372.2 261.5,370.3 265.0,369.1 268.4,374.5 271.9,373.3 275.3,369.7 278.8,370.5 282.3,372.2 285.7,376.1 289.2,372.8 292.6,373.3 296.1,375.3 299.6,374.5 303.0,369.4 306.5,370.3 310.0,370.5 313.4,371.9 316.9,372.2 320.3,367.8 323.8,368.9 327.3,367.2 330.7,367.5 334.2,367.8 337.7,382.6 341.1,374.2 344.6,373.3 348.0,371.7 351.5,371.7 355.0,369.1 358.4,369.1 361.9,370.5 365.4,373.1 368.8,370.3 372.3,367.5 375.7,367.2 379.2,364.1 382.7,364.4 386.1,365.5 389.6,364.7 393.0,364.4 396.5,366.4 400.0,368.0 403.4,366.1 406.9,367.2 410.4,362.4 413.8,359.4 417.3,360.5 420.7,359.4 424.2,361.6 427.7,363.3 431.1,365.2 434.6,361.3 438.1,367.8 441.5,366.4 445.0,362.2 448.4,360.5 451.9,361.9 455.4,364.4 458.8,363.6 462.3,365.0 465.8,363.6 469.2,365.0 472.7,366.4 476.1,363.6 479.6,365.0 483.1,361.9 486.5,361.3 490.0,363.0 493.4,361.6 496.9,367.2 500.4,362.4 503.8,363.8 507.3,361.6 510.8,362.2 514.2,365.5 517.7,366.4 521.1,363.6 524.6,370.3 528.1,370.0 531.5,368.9 535.0,371.4 538.5,368.0 541.9,365.2 545.4,368.6 548.8,370.0 552.3,369.4 555.8,368.9 559.2,370.3 562.7,366.6 569.6,368.0 573.1,368.6 576.5,368.9 580.0,367.8 583.5,368.3" fill="none" stroke="#4E8098" stroke-width="3" stroke-linecap="round" stroke-linejoin="round"/>
  <rect x="622.0" y="150" width="538.0" height="320" rx="24" fill="#FFF7F8" stroke="#E5E7EB"/>
  <text x="640.0" y="178.0" font-size="19" font-family="Arial, Helvetica, sans-serif" fill="#101828" font-weight="700" text-anchor="start">18-19</text>
  <text x="1142.0" y="178.0" font-size="12" font-family="Arial, Helvetica, sans-serif" fill="#C65A6A" font-weight="700" text-anchor="end">45.2% → 48.4%</text>
  <text x="640.0" y="204.0" font-size="11" font-family="Arial, Helvetica, sans-serif" fill="#667085" font-weight="400" text-anchor="start">seasonally adjusted LFPR</text>
  <line x1="640.0" y1="382.0" x2="1142.0" y2="382.0" stroke="#EEF2F7" stroke-width="1"/>
  <text x="632.0" y="386.0" font-size="10" font-family="Arial, Helvetica, sans-serif" fill="#667085" font-weight="400" text-anchor="end">20%</text>
  <line x1="640.0" y1="326.1" x2="1142.0" y2="326.1" stroke="#EEF2F7" stroke-width="1"/>
  <text x="632.0" y="330.1" font-size="10" font-family="Arial, Helvetica, sans-serif" fill="#667085" font-weight="400" text-anchor="end">40%</text>
  <line x1="640.0" y1="270.2" x2="1142.0" y2="270.2" stroke="#EEF2F7" stroke-width="1"/>
  <text x="632.0" y="274.2" font-size="10" font-family="Arial, Helvetica, sans-serif" fill="#667085" font-weight="400" text-anchor="end">60%</text>
  <line x1="640.0" y1="214.4" x2="1142.0" y2="214.4" stroke="#EEF2F7" stroke-width="1"/>
  <text x="632.0" y="218.4" font-size="10" font-family="Arial, Helvetica, sans-serif" fill="#667085" font-weight="400" text-anchor="end">80%</text>
  <line x1="640.0" y1="192" x2="640.0" y2="382" stroke="#F8FAFC" stroke-width="1"/>
  <text x="640.0" y="404.0" font-size="10" font-family="Arial, Helvetica, sans-serif" fill="#667085" font-weight="400" text-anchor="middle">2014</text>
  <line x1="723.1" y1="192" x2="723.1" y2="382" stroke="#F8FAFC" stroke-width="1"/>
  <text x="723.1" y="404.0" font-size="10" font-family="Arial, Helvetica, sans-serif" fill="#667085" font-weight="400" text-anchor="middle">2016</text>
  <line x1="806.2" y1="192" x2="806.2" y2="382" stroke="#F8FAFC" stroke-width="1"/>
  <text x="806.2" y="404.0" font-size="10" font-family="Arial, Helvetica, sans-serif" fill="#667085" font-weight="400" text-anchor="middle">2018</text>
  <line x1="889.3" y1="192" x2="889.3" y2="382" stroke="#F8FAFC" stroke-width="1"/>
  <text x="889.3" y="404.0" font-size="10" font-family="Arial, Helvetica, sans-serif" fill="#667085" font-weight="400" text-anchor="middle">2020</text>
  <line x1="972.4" y1="192" x2="972.4" y2="382" stroke="#F8FAFC" stroke-width="1"/>
  <text x="972.4" y="404.0" font-size="10" font-family="Arial, Helvetica, sans-serif" fill="#667085" font-weight="400" text-anchor="middle">2022</text>
  <line x1="1055.4" y1="192" x2="1055.4" y2="382" stroke="#F8FAFC" stroke-width="1"/>
  <text x="1055.4" y="404.0" font-size="10" font-family="Arial, Helvetica, sans-serif" fill="#667085" font-weight="400" text-anchor="middle">2024</text>
  <line x1="1138.5" y1="192" x2="1138.5" y2="382" stroke="#F8FAFC" stroke-width="1"/>
  <text x="1138.5" y="404.0" font-size="10" font-family="Arial, Helvetica, sans-serif" fill="#667085" font-weight="400" text-anchor="middle">2026</text>
  <polyline points="640.0,311.6 643.5,308.8 646.9,305.4 650.4,304.9 653.8,305.7 657.3,306.6 660.8,305.4 664.2,308.0 667.7,299.9 671.2,298.2 674.6,299.3 678.1,305.2 681.5,303.2 685.0,303.8 688.5,302.6 691.9,304.0 695.4,303.2 698.9,306.6 702.3,308.2 705.8,307.4 709.2,305.4 712.7,303.2 716.2,303.8 719.6,298.5 723.1,302.6 726.6,301.2 730.0,301.8 733.5,300.1 736.9,303.2 740.4,310.5 743.9,303.5 747.3,299.6 750.8,301.8 754.2,299.3 757.7,296.2 761.2,300.4 764.6,301.8 768.1,301.8 771.6,305.4 775.0,304.3 778.5,308.0 781.9,305.4 785.4,308.5 788.9,306.8 792.3,302.1 795.8,302.6 799.3,305.2 802.7,304.0 806.2,301.2 809.6,299.3 813.1,302.9 816.6,303.8 820.0,305.7 823.5,305.2 827.0,307.4 830.4,312.4 833.9,304.3 837.3,305.2 840.8,304.0 844.3,299.6 847.7,297.9 851.2,303.5 854.6,299.9 858.1,308.2 861.6,307.1 865.0,306.6 868.5,300.4 872.0,307.1 875.4,303.2 878.9,298.5 882.3,302.6 885.8,301.8 889.3,302.9 892.7,300.1 896.2,304.9 899.7,323.9 903.1,313.8 906.6,313.3 910.0,314.4 913.5,310.2 917.0,301.0 920.4,301.2 923.9,301.0 927.4,296.8 930.8,301.5 934.3,300.1 937.7,304.6 941.2,301.0 944.7,303.8 948.1,309.9 951.6,306.8 955.0,305.7 958.5,301.0 962.0,299.9 965.4,299.3 968.9,299.6 972.4,304.6 975.8,311.9 979.3,305.4 982.7,308.5 986.2,307.1 989.7,305.4 993.1,305.7 996.6,298.2 1000.1,294.8 1003.5,297.6 1007.0,296.8 1010.4,304.0 1013.9,301.0 1017.4,296.8 1020.8,300.1 1024.3,298.5 1027.8,301.8 1031.2,303.2 1034.7,305.4 1038.1,301.0 1041.6,303.2 1045.1,295.9 1048.5,299.6 1052.0,301.2 1055.4,306.6 1058.9,300.7 1062.4,296.5 1065.8,299.3 1069.3,298.5 1072.8,301.5 1076.2,304.3 1079.7,305.2 1083.1,300.7 1086.6,302.4 1090.1,299.3 1093.5,292.9 1097.0,295.9 1100.5,294.5 1103.9,295.9 1107.4,298.7 1110.8,301.2 1114.3,306.6 1117.8,308.5 1121.2,308.8 1124.7,301.2 1131.6,302.1 1135.1,297.9 1138.5,305.2 1142.0,303.8 1145.5,302.6" fill="none" stroke="#C65A6A" stroke-width="4" stroke-linecap="round" stroke-linejoin="round"/>
  <rect x="60.0" y="488" width="538.0" height="320" rx="24" fill="#FFFFFF" stroke="#E5E7EB"/>
  <text x="78.0" y="516.0" font-size="19" font-family="Arial, Helvetica, sans-serif" fill="#101828" font-weight="700" text-anchor="start">20-24</text>
  <text x="580.0" y="516.0" font-size="12" font-family="Arial, Helvetica, sans-serif" fill="#244A71" font-weight="700" text-anchor="end">70.7% → 70.5%</text>
  <text x="78.0" y="542.0" font-size="11" font-family="Arial, Helvetica, sans-serif" fill="#667085" font-weight="400" text-anchor="start">seasonally adjusted LFPR</text>
  <line x1="78.0" y1="720.0" x2="580.0" y2="720.0" stroke="#EEF2F7" stroke-width="1"/>
  <text x="70.0" y="724.0" font-size="10" font-family="Arial, Helvetica, sans-serif" fill="#667085" font-weight="400" text-anchor="end">20%</text>
  <line x1="78.0" y1="664.1" x2="580.0" y2="664.1" stroke="#EEF2F7" stroke-width="1"/>
  <text x="70.0" y="668.1" font-size="10" font-family="Arial, Helvetica, sans-serif" fill="#667085" font-weight="400" text-anchor="end">40%</text>
  <line x1="78.0" y1="608.2" x2="580.0" y2="608.2" stroke="#EEF2F7" stroke-width="1"/>
  <text x="70.0" y="612.2" font-size="10" font-family="Arial, Helvetica, sans-serif" fill="#667085" font-weight="400" text-anchor="end">60%</text>
  <line x1="78.0" y1="552.4" x2="580.0" y2="552.4" stroke="#EEF2F7" stroke-width="1"/>
  <text x="70.0" y="556.4" font-size="10" font-family="Arial, Helvetica, sans-serif" fill="#667085" font-weight="400" text-anchor="end">80%</text>
  <line x1="78.0" y1="530" x2="78.0" y2="720" stroke="#F8FAFC" stroke-width="1"/>
  <text x="78.0" y="742.0" font-size="10" font-family="Arial, Helvetica, sans-serif" fill="#667085" font-weight="400" text-anchor="middle">2014</text>
  <line x1="161.1" y1="530" x2="161.1" y2="720" stroke="#F8FAFC" stroke-width="1"/>
  <text x="161.1" y="742.0" font-size="10" font-family="Arial, Helvetica, sans-serif" fill="#667085" font-weight="400" text-anchor="middle">2016</text>
  <line x1="244.2" y1="530" x2="244.2" y2="720" stroke="#F8FAFC" stroke-width="1"/>
  <text x="244.2" y="742.0" font-size="10" font-family="Arial, Helvetica, sans-serif" fill="#667085" font-weight="400" text-anchor="middle">2018</text>
  <line x1="327.3" y1="530" x2="327.3" y2="720" stroke="#F8FAFC" stroke-width="1"/>
  <text x="327.3" y="742.0" font-size="10" font-family="Arial, Helvetica, sans-serif" fill="#667085" font-weight="400" text-anchor="middle">2020</text>
  <line x1="410.4" y1="530" x2="410.4" y2="720" stroke="#F8FAFC" stroke-width="1"/>
  <text x="410.4" y="742.0" font-size="10" font-family="Arial, Helvetica, sans-serif" fill="#667085" font-weight="400" text-anchor="middle">2022</text>
  <line x1="493.4" y1="530" x2="493.4" y2="720" stroke="#F8FAFC" stroke-width="1"/>
  <text x="493.4" y="742.0" font-size="10" font-family="Arial, Helvetica, sans-serif" fill="#667085" font-weight="400" text-anchor="middle">2024</text>
  <line x1="576.5" y1="530" x2="576.5" y2="720" stroke="#F8FAFC" stroke-width="1"/>
  <text x="576.5" y="742.0" font-size="10" font-family="Arial, Helvetica, sans-serif" fill="#667085" font-weight="400" text-anchor="middle">2026</text>
  <polyline points="78.0,578.3 81.5,579.5 84.9,575.3 88.4,578.9 91.8,577.8 95.3,579.5 98.8,577.5 102.2,579.7 105.7,577.2 109.2,576.1 112.6,576.7 116.1,579.2 119.5,579.7 123.0,578.1 126.5,580.9 129.9,581.7 133.4,577.2 136.9,577.8 140.3,577.8 143.8,576.4 147.2,579.7 150.7,577.8 154.2,577.5 157.6,576.7 161.1,581.1 164.6,579.2 168.0,578.1 171.5,579.5 174.9,578.9 178.4,578.9 181.9,580.3 185.3,577.5 188.8,579.7 192.2,579.5 195.7,577.8 199.2,576.4 202.6,576.9 206.1,575.3 209.6,576.7 213.0,576.1 216.5,577.5 219.9,578.9 223.4,575.8 226.9,574.7 230.3,575.0 233.8,575.8 237.3,578.3 240.7,578.3 244.2,575.0 247.6,575.5 251.1,574.7 254.6,576.4 258.0,576.7 261.5,576.7 265.0,576.7 268.4,580.0 271.9,577.8 275.3,580.0 278.8,579.5 282.3,578.3 285.7,575.8 289.2,575.8 292.6,575.3 296.1,574.1 299.6,571.1 303.0,573.6 306.5,573.0 310.0,574.4 313.4,573.3 316.9,573.0 320.3,576.4 323.8,575.5 327.3,572.5 330.7,571.9 334.2,580.3 337.7,596.2 341.1,590.9 344.6,587.3 348.0,585.0 351.5,583.9 355.0,582.5 358.4,578.1 361.9,578.9 365.4,578.9 368.8,580.3 372.3,580.3 375.7,579.7 379.2,579.2 382.7,579.2 386.1,578.1 389.6,578.1 393.0,579.2 396.5,578.3 400.0,576.7 403.4,575.0 406.9,574.7 410.4,578.1 413.8,576.4 417.3,576.9 420.7,579.7 424.2,578.3 427.7,576.4 431.1,576.4 434.6,578.6 438.1,577.8 441.5,578.1 445.0,578.6 448.4,576.4 451.9,576.4 455.4,574.7 458.8,575.0 462.3,578.3 465.8,576.1 469.2,577.5 472.7,578.3 476.1,576.4 479.6,576.1 483.1,578.3 486.5,576.1 490.0,576.9 493.4,573.9 496.9,575.8 500.4,575.3 503.8,574.4 507.3,578.1 510.8,577.2 514.2,576.4 517.7,577.8 521.1,578.1 524.6,575.0 528.1,576.1 531.5,575.0 535.0,574.1 538.5,576.9 541.9,575.0 545.4,574.7 548.8,576.7 552.3,577.5 555.8,577.5 559.2,579.5 562.7,577.2 569.6,575.3 573.1,576.7 576.5,576.7 580.0,575.8 583.5,578.9" fill="none" stroke="#244A71" stroke-width="3" stroke-linecap="round" stroke-linejoin="round"/>
  <rect x="622.0" y="488" width="538.0" height="320" rx="24" fill="#FFFFFF" stroke="#E5E7EB"/>
  <text x="640.0" y="516.0" font-size="19" font-family="Arial, Helvetica, sans-serif" fill="#101828" font-weight="700" text-anchor="start">25-54</text>
  <text x="1142.0" y="516.0" font-size="12" font-family="Arial, Helvetica, sans-serif" fill="#C8971D" font-weight="700" text-anchor="end">80.9% → 83.8%</text>
  <text x="640.0" y="542.0" font-size="11" font-family="Arial, Helvetica, sans-serif" fill="#667085" font-weight="400" text-anchor="start">seasonally adjusted LFPR</text>
  <line x1="640.0" y1="720.0" x2="1142.0" y2="720.0" stroke="#EEF2F7" stroke-width="1"/>
  <text x="632.0" y="724.0" font-size="10" font-family="Arial, Helvetica, sans-serif" fill="#667085" font-weight="400" text-anchor="end">20%</text>
  <line x1="640.0" y1="664.1" x2="1142.0" y2="664.1" stroke="#EEF2F7" stroke-width="1"/>
  <text x="632.0" y="668.1" font-size="10" font-family="Arial, Helvetica, sans-serif" fill="#667085" font-weight="400" text-anchor="end">40%</text>
  <line x1="640.0" y1="608.2" x2="1142.0" y2="608.2" stroke="#EEF2F7" stroke-width="1"/>
  <text x="632.0" y="612.2" font-size="10" font-family="Arial, Helvetica, sans-serif" fill="#667085" font-weight="400" text-anchor="end">60%</text>
  <line x1="640.0" y1="552.4" x2="1142.0" y2="552.4" stroke="#EEF2F7" stroke-width="1"/>
  <text x="632.0" y="556.4" font-size="10" font-family="Arial, Helvetica, sans-serif" fill="#667085" font-weight="400" text-anchor="end">80%</text>
  <line x1="640.0" y1="530" x2="640.0" y2="720" stroke="#F8FAFC" stroke-width="1"/>
  <text x="640.0" y="742.0" font-size="10" font-family="Arial, Helvetica, sans-serif" fill="#667085" font-weight="400" text-anchor="middle">2014</text>
  <line x1="723.1" y1="530" x2="723.1" y2="720" stroke="#F8FAFC" stroke-width="1"/>
  <text x="723.1" y="742.0" font-size="10" font-family="Arial, Helvetica, sans-serif" fill="#667085" font-weight="400" text-anchor="middle">2016</text>
  <line x1="806.2" y1="530" x2="806.2" y2="720" stroke="#F8FAFC" stroke-width="1"/>
  <text x="806.2" y="742.0" font-size="10" font-family="Arial, Helvetica, sans-serif" fill="#667085" font-weight="400" text-anchor="middle">2018</text>
  <line x1="889.3" y1="530" x2="889.3" y2="720" stroke="#F8FAFC" stroke-width="1"/>
  <text x="889.3" y="742.0" font-size="10" font-family="Arial, Helvetica, sans-serif" fill="#667085" font-weight="400" text-anchor="middle">2020</text>
  <line x1="972.4" y1="530" x2="972.4" y2="720" stroke="#F8FAFC" stroke-width="1"/>
  <text x="972.4" y="742.0" font-size="10" font-family="Arial, Helvetica, sans-serif" fill="#667085" font-weight="400" text-anchor="middle">2022</text>
  <line x1="1055.4" y1="530" x2="1055.4" y2="720" stroke="#F8FAFC" stroke-width="1"/>
  <text x="1055.4" y="742.0" font-size="10" font-family="Arial, Helvetica, sans-serif" fill="#667085" font-weight="400" text-anchor="middle">2024</text>
  <line x1="1138.5" y1="530" x2="1138.5" y2="720" stroke="#F8FAFC" stroke-width="1"/>
  <text x="1138.5" y="742.0" font-size="10" font-family="Arial, Helvetica, sans-serif" fill="#667085" font-weight="400" text-anchor="middle">2026</text>
  <polyline points="640.0,549.8 643.5,549.3 646.9,549.3 650.4,550.1 653.8,550.4 657.3,549.6 660.8,550.1 664.2,549.3 667.7,550.1 671.2,549.8 674.6,549.8 678.1,549.8 681.5,549.6 685.0,549.8 688.5,550.1 691.9,549.6 695.4,549.3 698.9,549.8 702.3,550.4 705.8,550.4 709.2,550.7 712.7,550.1 716.2,549.8 719.6,549.8 723.1,549.3 726.6,549.3 730.0,548.7 733.5,549.0 736.9,549.0 740.4,548.7 743.9,548.7 747.3,548.4 750.8,548.2 754.2,548.2 757.7,548.4 761.2,548.7 764.6,548.2 768.1,547.9 771.6,547.9 775.0,547.6 778.5,547.6 781.9,547.9 785.4,547.3 788.9,547.9 792.3,547.0 795.8,547.9 799.3,547.6 802.7,547.3 806.2,547.6 809.6,546.5 813.1,546.8 816.6,546.8 820.0,547.0 823.5,546.5 827.0,546.5 830.4,547.0 833.9,547.0 837.3,545.9 840.8,546.2 844.3,545.9 847.7,545.4 851.2,545.4 854.6,545.6 858.1,546.2 861.6,546.2 865.0,546.2 868.5,546.5 872.0,545.4 875.4,544.8 878.9,544.5 882.3,544.2 885.8,544.0 889.3,543.7 892.7,544.2 896.2,545.6 899.7,552.9 903.1,550.7 906.6,548.4 910.0,549.0 913.5,548.7 917.0,549.8 920.4,548.7 923.9,549.6 927.4,549.3 930.8,549.3 934.3,549.3 937.7,548.7 941.2,548.7 944.7,548.7 948.1,547.6 951.6,547.3 955.0,547.6 958.5,547.9 962.0,547.3 965.4,546.8 968.9,546.8 972.4,546.8 975.8,546.2 979.3,545.4 982.7,545.6 986.2,545.1 989.7,545.9 993.1,545.6 996.6,544.5 1000.1,545.1 1003.5,545.1 1007.0,545.6 1010.4,545.1 1013.9,544.8 1017.4,544.0 1020.8,543.7 1024.3,543.1 1027.8,542.9 1031.2,542.6 1034.7,542.9 1038.1,542.9 1041.6,542.6 1045.1,542.9 1048.5,542.9 1052.0,543.4 1055.4,543.1 1058.9,542.6 1062.4,542.9 1065.8,542.6 1069.3,542.3 1072.8,542.0 1076.2,541.2 1079.7,541.5 1083.1,541.7 1086.6,542.6 1090.1,542.6 1093.5,542.9 1097.0,542.6 1100.5,542.6 1103.9,543.1 1107.4,542.3 1110.8,542.9 1114.3,542.6 1117.8,542.9 1121.2,542.0 1124.7,542.0 1131.6,541.7 1135.1,541.7 1138.5,541.2 1142.0,541.5 1145.5,541.7" fill="none" stroke="#C8971D" stroke-width="3" stroke-linecap="round" stroke-linejoin="round"/>
  <text x="110.0" y="1042.0" font-size="11" font-family="Arial, Helvetica, sans-serif" fill="#667085" font-weight="400" text-anchor="start">Source: BLS A-8b table, seasonally adjusted participation rates by age and sex.</text>
</svg>