<svg xmlns="http://www.w3.org/2000/svg" width="1220" height="860" viewBox="0 0 1220 860" role="img" aria-label="The age gradient is the real story">
  <defs>
    <linearGradient id="bgFade" x1="0" x2="1" y1="0" y2="1">
      <stop offset="0%" stop-color="#FFFDF8"/>
      <stop offset="100%" stop-color="#F7F2E8"/>
    </linearGradient>
    <filter id="softShadow" x="-20%" y="-20%" width="140%" height="140%">
      <feDropShadow dx="0" dy="8" stdDeviation="12" flood-color="#0D1321" flood-opacity="0.10"/>
    </filter>
  </defs>
  <rect x="0" y="0" width="1220" height="860" rx="30" fill="url(#bgFade)"/>
  <g filter="url(#softShadow)">
    <rect x="22" y="22" width="1176" height="816" rx="24" fill="white" opacity="0.88"/>
  </g>
  <text x="52" y="72" font-size="30" font-family="Georgia, 'Times New Roman', serif" font-weight="700" fill="#101828">The age gradient is the real story</text>
  <text x="52" y="102" font-size="14" font-family="Arial, Helvetica, sans-serif" fill="#475467">Young people are where labor-force participation changes most, not prime-age workers.</text>
  <text x="110.0" y="132.0" font-size="13" font-family="Arial, Helvetica, sans-serif" fill="#667085" font-weight="400" text-anchor="start">Current and projected participation by age</text>
  <text x="110.0" y="154.0" font-size="18" font-family="Arial, Helvetica, sans-serif" fill="#101828" font-weight="700" text-anchor="start">The drop is concentrated in teens, while prime-age participation stays high.</text>
  <text x="110.0" y="178.0" font-size="13" font-family="Arial, Helvetica, sans-serif" fill="#667085" font-weight="400" text-anchor="start">BLS Employment Projections table 3.3; comparison years 2004, 2014, 2024, and 2034.</text>
  <line x1="180" y1="195.0" x2="1070" y2="195.0" stroke="#E5E7EB" stroke-width="1"/>
  <text x="164.0" y="199.0" font-size="11" font-family="Arial, Helvetica, sans-serif" fill="#667085" font-weight="400" text-anchor="end">90%</text>
  <line x1="180" y1="271.7" x2="1070" y2="271.7" stroke="#E5E7EB" stroke-width="1"/>
  <text x="164.0" y="275.7" font-size="11" font-family="Arial, Helvetica, sans-serif" fill="#667085" font-weight="400" text-anchor="end">80%</text>
  <line x1="180" y1="348.3" x2="1070" y2="348.3" stroke="#E5E7EB" stroke-width="1"/>
  <text x="164.0" y="352.3" font-size="11" font-family="Arial, Helvetica, sans-serif" fill="#667085" font-weight="400" text-anchor="end">70%</text>
  <line x1="180" y1="425.0" x2="1070" y2="425.0" stroke="#E5E7EB" stroke-width="1"/>
  <text x="164.0" y="429.0" font-size="11" font-family="Arial, Helvetica, sans-serif" fill="#667085" font-weight="400" text-anchor="end">60%</text>
  <line x1="180" y1="501.7" x2="1070" y2="501.7" stroke="#E5E7EB" stroke-width="1"/>
  <text x="164.0" y="505.7" font-size="11" font-family="Arial, Helvetica, sans-serif" fill="#667085" font-weight="400" text-anchor="end">50%</text>
  <line x1="180" y1="578.3" x2="1070" y2="578.3" stroke="#E5E7EB" stroke-width="1"/>
  <text x="164.0" y="582.3" font-size="11" font-family="Arial, Helvetica, sans-serif" fill="#667085" font-weight="400" text-anchor="end">40%</text>
  <line x1="180" y1="655.0" x2="1070" y2="655.0" stroke="#E5E7EB" stroke-width="1"/>
  <text x="164.0" y="659.0" font-size="11" font-family="Arial, Helvetica, sans-serif" fill="#667085" font-weight="400" text-anchor="end">30%</text>
  <text x="78.0" y="199.0" font-size="12" font-family="Arial, Helvetica, sans-serif" fill="#101828" font-weight="600" text-anchor="start">16-19</text>
  <line x1="180" y1="195.0" x2="1070" y2="195.0" stroke="#F2F4F7" stroke-width="1"/>
  <circle cx="180.0" cy="548.4" r="6.5" fill="#6B7280" stroke="#fff" stroke-width="2"/>
  <line x1="180.0" y1="548.4" x2="476.7" y2="624.3" stroke="#CBD5E1" stroke-width="2"/>
  <circle cx="476.7" cy="624.3" r="6.5" fill="#C8971D" stroke="#fff" stroke-width="2"/>
  <line x1="476.7" y1="624.3" x2="773.3" y2="602.1" stroke="#CBD5E1" stroke-width="2"/>
  <circle cx="773.3" cy="602.1" r="6.5" fill="#244A71" stroke="#fff" stroke-width="2"/>
  <line x1="773.3" y1="602.1" x2="1070.0" y2="619.7" stroke="#CBD5E1" stroke-width="2"/>
  <circle cx="1070.0" cy="619.7" r="6.5" fill="#9A4F5E" stroke="#fff" stroke-width="2"/>
  <text x="78.0" y="314.0" font-size="12" font-family="Arial, Helvetica, sans-serif" fill="#101828" font-weight="600" text-anchor="start">16-24</text>
  <line x1="180" y1="310.0" x2="1070" y2="310.0" stroke="#F2F4F7" stroke-width="1"/>
  <circle cx="180.0" cy="416.6" r="6.5" fill="#6B7280" stroke="#fff" stroke-width="2"/>
  <line x1="180.0" y1="416.6" x2="476.7" y2="463.3" stroke="#CBD5E1" stroke-width="2"/>
  <circle cx="476.7" cy="463.3" r="6.5" fill="#C8971D" stroke="#fff" stroke-width="2"/>
  <line x1="476.7" y1="463.3" x2="773.3" y2="456.4" stroke="#CBD5E1" stroke-width="2"/>
  <circle cx="773.3" cy="456.4" r="6.5" fill="#244A71" stroke="#fff" stroke-width="2"/>
  <line x1="773.3" y1="456.4" x2="1070.0" y2="474.1" stroke="#CBD5E1" stroke-width="2"/>
  <circle cx="1070.0" cy="474.1" r="6.5" fill="#9A4F5E" stroke="#fff" stroke-width="2"/>
  <text x="78.0" y="429.0" font-size="12" font-family="Arial, Helvetica, sans-serif" fill="#101828" font-weight="600" text-anchor="start">20-24</text>
  <line x1="180" y1="425.0" x2="1070" y2="425.0" stroke="#F2F4F7" stroke-width="1"/>
  <circle cx="180.0" cy="310.0" r="6.5" fill="#6B7280" stroke="#fff" stroke-width="2"/>
  <line x1="180.0" y1="310.0" x2="476.7" y2="342.2" stroke="#CBD5E1" stroke-width="2"/>
  <circle cx="476.7" cy="342.2" r="6.5" fill="#C8971D" stroke="#fff" stroke-width="2"/>
  <line x1="476.7" y1="342.2" x2="773.3" y2="336.8" stroke="#CBD5E1" stroke-width="2"/>
  <circle cx="773.3" cy="336.8" r="6.5" fill="#244A71" stroke="#fff" stroke-width="2"/>
  <line x1="773.3" y1="336.8" x2="1070.0" y2="355.2" stroke="#CBD5E1" stroke-width="2"/>
  <circle cx="1070.0" cy="355.2" r="6.5" fill="#9A4F5E" stroke="#fff" stroke-width="2"/>
  <text x="78.0" y="544.0" font-size="12" font-family="Arial, Helvetica, sans-serif" fill="#101828" font-weight="600" text-anchor="start">25-54</text>
  <line x1="180" y1="540.0" x2="1070" y2="540.0" stroke="#F2F4F7" stroke-width="1"/>
  <circle cx="180.0" cy="250.2" r="6.5" fill="#6B7280" stroke="#fff" stroke-width="2"/>
  <line x1="180.0" y1="250.2" x2="476.7" y2="264.8" stroke="#CBD5E1" stroke-width="2"/>
  <circle cx="476.7" cy="264.8" r="6.5" fill="#C8971D" stroke="#fff" stroke-width="2"/>
  <line x1="476.7" y1="264.8" x2="773.3" y2="244.1" stroke="#CBD5E1" stroke-width="2"/>
  <circle cx="773.3" cy="244.1" r="6.5" fill="#244A71" stroke="#fff" stroke-width="2"/>
  <line x1="773.3" y1="244.1" x2="1070.0" y2="250.2" stroke="#CBD5E1" stroke-width="2"/>
  <circle cx="1070.0" cy="250.2" r="6.5" fill="#9A4F5E" stroke="#fff" stroke-width="2"/>
  <text x="78.0" y="659.0" font-size="12" font-family="Arial, Helvetica, sans-serif" fill="#101828" font-weight="600" text-anchor="start">55+</text>
  <line x1="180" y1="655.0" x2="1070" y2="655.0" stroke="#F2F4F7" stroke-width="1"/>
  <circle cx="180.0" cy="553.8" r="6.5" fill="#6B7280" stroke="#fff" stroke-width="2"/>
  <line x1="180.0" y1="553.8" x2="476.7" y2="533.1" stroke="#CBD5E1" stroke-width="2"/>
  <circle cx="476.7" cy="533.1" r="6.5" fill="#C8971D" stroke="#fff" stroke-width="2"/>
  <line x1="476.7" y1="533.1" x2="773.3" y2="548.4" stroke="#CBD5E1" stroke-width="2"/>
  <circle cx="773.3" cy="548.4" r="6.5" fill="#244A71" stroke="#fff" stroke-width="2"/>
  <line x1="773.3" y1="548.4" x2="1070.0" y2="566.1" stroke="#CBD5E1" stroke-width="2"/>
  <circle cx="1070.0" cy="566.1" r="6.5" fill="#9A4F5E" stroke="#fff" stroke-width="2"/>
  <rect x="180" y="705" width="14" height="14" rx="4" fill="#6B7280"/>
  <text x="202.0" y="717.0" font-size="12" font-family="Arial, Helvetica, sans-serif" fill="#101828" font-weight="600" text-anchor="start">2004</text>
  <text x="110.0" y="770.0" font-size="11" font-family="Arial, Helvetica, sans-serif" fill="#667085" font-weight="400" text-anchor="start">Source: BLS Employment Projections table 3.3. The teen rate is the stress point; the 25-54 series barely moves.</text>
  <rect x="375" y="705" width="14" height="14" rx="4" fill="#C8971D"/>
  <text x="397.0" y="717.0" font-size="12" font-family="Arial, Helvetica, sans-serif" fill="#101828" font-weight="600" text-anchor="start">2014</text>
  <text x="110.0" y="770.0" font-size="11" font-family="Arial, Helvetica, sans-serif" fill="#667085" font-weight="400" text-anchor="start">Source: BLS Employment Projections table 3.3. The teen rate is the stress point; the 25-54 series barely moves.</text>
  <rect x="570" y="705" width="14" height="14" rx="4" fill="#244A71"/>
  <text x="592.0" y="717.0" font-size="12" font-family="Arial, Helvetica, sans-serif" fill="#101828" font-weight="600" text-anchor="start">2024</text>
  <text x="110.0" y="770.0" font-size="11" font-family="Arial, Helvetica, sans-serif" fill="#667085" font-weight="400" text-anchor="start">Source: BLS Employment Projections table 3.3. The teen rate is the stress point; the 25-54 series barely moves.</text>
  <rect x="765" y="705" width="14" height="14" rx="4" fill="#9A4F5E"/>
  <text x="787.0" y="717.0" font-size="12" font-family="Arial, Helvetica, sans-serif" fill="#101828" font-weight="600" text-anchor="start">2034</text>
  <text x="110.0" y="770.0" font-size="11" font-family="Arial, Helvetica, sans-serif" fill="#667085" font-weight="400" text-anchor="start">Source: BLS Employment Projections table 3.3. The teen rate is the stress point; the 25-54 series barely moves.</text>
</svg>