<svg xmlns="http://www.w3.org/2000/svg" width="1240" height="820" viewBox="0 0 1240 820" role="img" aria-label="Gasoline price history, 1963-2024">
  <defs>
    <linearGradient id="bgFade" x1="0" x2="1" y1="0" y2="1">
      <stop offset="0%" stop-color="#FFFDF8"/>
      <stop offset="100%" stop-color="#F7F2E8"/>
    </linearGradient>
    <filter id="softShadow" x="-20%" y="-20%" width="140%" height="140%">
      <feDropShadow dx="0" dy="8" stdDeviation="12" flood-color="#0D1321" flood-opacity="0.10"/>
    </filter>
  </defs>
  <rect x="0" y="0" width="1240" height="820" rx="30" fill="url(#bgFade)"/>
  <g filter="url(#softShadow)">
    <rect x="22" y="22" width="1196" height="776" rx="24" fill="white" opacity="0.88"/>
  </g>
  <text x="52" y="72" font-size="30" font-family="Georgia, 'Times New Roman', serif" font-weight="700" fill="#101828">Gasoline price history, 1963-2024</text>
  <text x="52" y="102" font-size="14" font-family="Arial, Helvetica, sans-serif" fill="#475467">A standalone version of the spliced fuel series used in the main chart.</text>
  <text x="72.0" y="136.0" font-size="13" font-family="Arial, Helvetica, sans-serif" fill="#667085" font-weight="400" text-anchor="start">Standalone gasoline splice</text>
  <text x="72.0" y="158.0" font-size="22" font-family="Arial, Helvetica, sans-serif" fill="#101828" font-weight="700" text-anchor="start">Leaded regular gasoline through 1990, then regular gasoline after the switch.</text>
  <text x="72.0" y="182.0" font-size="13" font-family="Arial, Helvetica, sans-serif" fill="#667085" font-weight="400" text-anchor="start">This is the 1963-2024 series extracted from the gasoline context file the React chart now uses.</text>
  <rect x="72" y="202" width="1094" height="392" rx="26" fill="#FFFFFF" stroke="#E8E0D2"/>
  <rect x="362.3" y="174" width="33.4" height="450" fill="#C8971D" opacity="0.10"/>
  <line x1="112" y1="624.0" x2="1130" y2="624.0" stroke="#E5E7EB" stroke-width="1"/>
  <text x="98.0" y="628.0" font-size="11" font-family="Arial, Helvetica, sans-serif" fill="#667085" font-weight="400" text-anchor="end">$0.0</text>
  <line x1="112" y1="574.0" x2="1130" y2="574.0" stroke="#E5E7EB" stroke-width="1"/>
  <text x="98.0" y="578.0" font-size="11" font-family="Arial, Helvetica, sans-serif" fill="#667085" font-weight="400" text-anchor="end">$0.5</text>
  <line x1="112" y1="524.0" x2="1130" y2="524.0" stroke="#E5E7EB" stroke-width="1"/>
  <text x="98.0" y="528.0" font-size="11" font-family="Arial, Helvetica, sans-serif" fill="#667085" font-weight="400" text-anchor="end">$1.0</text>
  <line x1="112" y1="474.0" x2="1130" y2="474.0" stroke="#E5E7EB" stroke-width="1"/>
  <text x="98.0" y="478.0" font-size="11" font-family="Arial, Helvetica, sans-serif" fill="#667085" font-weight="400" text-anchor="end">$1.5</text>
  <line x1="112" y1="424.0" x2="1130" y2="424.0" stroke="#E5E7EB" stroke-width="1"/>
  <text x="98.0" y="428.0" font-size="11" font-family="Arial, Helvetica, sans-serif" fill="#667085" font-weight="400" text-anchor="end">$2.0</text>
  <line x1="112" y1="374.0" x2="1130" y2="374.0" stroke="#E5E7EB" stroke-width="1"/>
  <text x="98.0" y="378.0" font-size="11" font-family="Arial, Helvetica, sans-serif" fill="#667085" font-weight="400" text-anchor="end">$2.5</text>
  <line x1="112" y1="324.0" x2="1130" y2="324.0" stroke="#E5E7EB" stroke-width="1"/>
  <text x="98.0" y="328.0" font-size="11" font-family="Arial, Helvetica, sans-serif" fill="#667085" font-weight="400" text-anchor="end">$3.0</text>
  <line x1="112" y1="274.0" x2="1130" y2="274.0" stroke="#E5E7EB" stroke-width="1"/>
  <text x="98.0" y="278.0" font-size="11" font-family="Arial, Helvetica, sans-serif" fill="#667085" font-weight="400" text-anchor="end">$3.5</text>
  <line x1="112" y1="224.0" x2="1130" y2="224.0" stroke="#E5E7EB" stroke-width="1"/>
  <text x="98.0" y="228.0" font-size="11" font-family="Arial, Helvetica, sans-serif" fill="#667085" font-weight="400" text-anchor="end">$4.0</text>
  <line x1="112" y1="174.0" x2="1130" y2="174.0" stroke="#E5E7EB" stroke-width="1"/>
  <text x="98.0" y="178.0" font-size="11" font-family="Arial, Helvetica, sans-serif" fill="#667085" font-weight="400" text-anchor="end">$4.5</text>
  <line x1="112.0" y1="174" x2="112.0" y2="624" stroke="#F2F4F7" stroke-width="1"/>
  <text x="112.0" y="648.0" font-size="10" font-family="Arial, Helvetica, sans-serif" fill="#667085" font-weight="400" text-anchor="middle">1963</text>
  <line x1="145.4" y1="174" x2="145.4" y2="624" stroke="#F2F4F7" stroke-width="1"/>
  <text x="145.4" y="648.0" font-size="10" font-family="Arial, Helvetica, sans-serif" fill="#667085" font-weight="400" text-anchor="middle">1965</text>
  <line x1="228.8" y1="174" x2="228.8" y2="624" stroke="#F2F4F7" stroke-width="1"/>
  <text x="228.8" y="648.0" font-size="10" font-family="Arial, Helvetica, sans-serif" fill="#667085" font-weight="400" text-anchor="middle">1970</text>
  <line x1="312.3" y1="174" x2="312.3" y2="624" stroke="#F2F4F7" stroke-width="1"/>
  <text x="312.3" y="648.0" font-size="10" font-family="Arial, Helvetica, sans-serif" fill="#667085" font-weight="400" text-anchor="middle">1975</text>
  <line x1="362.3" y1="174" x2="362.3" y2="624" stroke="#F2F4F7" stroke-width="1"/>
  <text x="362.3" y="648.0" font-size="10" font-family="Arial, Helvetica, sans-serif" fill="#667085" font-weight="400" text-anchor="middle">1978</text>
  <line x1="395.7" y1="174" x2="395.7" y2="624" stroke="#F2F4F7" stroke-width="1"/>
  <text x="395.7" y="648.0" font-size="10" font-family="Arial, Helvetica, sans-serif" fill="#667085" font-weight="400" text-anchor="middle">1980</text>
  <line x1="479.1" y1="174" x2="479.1" y2="624" stroke="#F2F4F7" stroke-width="1"/>
  <text x="479.1" y="648.0" font-size="10" font-family="Arial, Helvetica, sans-serif" fill="#667085" font-weight="400" text-anchor="middle">1985</text>
  <line x1="562.6" y1="174" x2="562.6" y2="624" stroke="#F2F4F7" stroke-width="1"/>
  <text x="562.6" y="648.0" font-size="10" font-family="Arial, Helvetica, sans-serif" fill="#667085" font-weight="400" text-anchor="middle">1990</text>
  <line x1="646.0" y1="174" x2="646.0" y2="624" stroke="#F2F4F7" stroke-width="1"/>
  <text x="646.0" y="648.0" font-size="10" font-family="Arial, Helvetica, sans-serif" fill="#667085" font-weight="400" text-anchor="middle">1995</text>
  <line x1="729.5" y1="174" x2="729.5" y2="624" stroke="#F2F4F7" stroke-width="1"/>
  <text x="729.5" y="648.0" font-size="10" font-family="Arial, Helvetica, sans-serif" fill="#667085" font-weight="400" text-anchor="middle">2000</text>
  <line x1="812.9" y1="174" x2="812.9" y2="624" stroke="#F2F4F7" stroke-width="1"/>
  <text x="812.9" y="648.0" font-size="10" font-family="Arial, Helvetica, sans-serif" fill="#667085" font-weight="400" text-anchor="middle">2005</text>
  <line x1="896.4" y1="174" x2="896.4" y2="624" stroke="#F2F4F7" stroke-width="1"/>
  <text x="896.4" y="648.0" font-size="10" font-family="Arial, Helvetica, sans-serif" fill="#667085" font-weight="400" text-anchor="middle">2010</text>
  <line x1="979.8" y1="174" x2="979.8" y2="624" stroke="#F2F4F7" stroke-width="1"/>
  <text x="979.8" y="648.0" font-size="10" font-family="Arial, Helvetica, sans-serif" fill="#667085" font-weight="400" text-anchor="middle">2015</text>
  <line x1="1063.2" y1="174" x2="1063.2" y2="624" stroke="#F2F4F7" stroke-width="1"/>
  <text x="1063.2" y="648.0" font-size="10" font-family="Arial, Helvetica, sans-serif" fill="#667085" font-weight="400" text-anchor="middle">2020</text>
  <line x1="1130.0" y1="174" x2="1130.0" y2="624" stroke="#F2F4F7" stroke-width="1"/>
  <text x="1130.0" y="648.0" font-size="10" font-family="Arial, Helvetica, sans-serif" fill="#667085" font-weight="400" text-anchor="middle">2024</text>
  <polygon points="112.0,624.0 112.0,593.6 128.7,593.6 145.4,592.8 162.1,591.9 178.8,590.8 195.4,590.3 212.1,589.2 228.8,588.3 245.5,587.6 262.2,587.9 278.9,585.2 295.6,570.8 312.3,567.3 329.0,565.0 345.6,561.8 362.3,561.3 379.0,538.3 395.7,504.9 412.4,492.9 429.1,501.8 445.8,508.2 462.5,511.1 479.1,512.5 495.8,538.3 512.5,534.3 529.2,534.0 545.9,524.3 562.6,509.1 579.3,504.4 596.0,505.0 612.7,506.7 629.3,506.6 646.0,503.5 662.7,495.2 679.4,494.9 696.1,512.5 712.8,501.9 729.5,467.7 746.2,470.9 762.9,479.9 779.5,460.2 796.2,431.7 812.9,390.2 829.6,360.5 846.3,339.1 863.0,292.3 879.7,383.9 896.4,340.4 913.0,266.3 929.7,254.5 946.4,265.6 963.1,281.5 979.8,373.0 996.5,403.6 1013.2,377.1 1029.9,344.6 1046.6,354.2 1063.2,399.8 1079.9,310.7 1096.6,204.8 1113.3,246.9 1130.0,266.1 1130.0,624.0" fill="#244A71" opacity="0.08"/>
  <polyline points="112.0,593.6 128.7,593.6 145.4,592.8 162.1,591.9 178.8,590.8 195.4,590.3 212.1,589.2 228.8,588.3 245.5,587.6 262.2,587.9 278.9,585.2 295.6,570.8 312.3,567.3 329.0,565.0 345.6,561.8 362.3,561.3 379.0,538.3 395.7,504.9 412.4,492.9 429.1,501.8 445.8,508.2 462.5,511.1 479.1,512.5 495.8,538.3 512.5,534.3 529.2,534.0 545.9,524.3 562.6,509.1 579.3,504.4 596.0,505.0 612.7,506.7 629.3,506.6 646.0,503.5 662.7,495.2 679.4,494.9 696.1,512.5 712.8,501.9 729.5,467.7 746.2,470.9 762.9,479.9 779.5,460.2 796.2,431.7 812.9,390.2 829.6,360.5 846.3,339.1 863.0,292.3 879.7,383.9 896.4,340.4 913.0,266.3 929.7,254.5 946.4,265.6 963.1,281.5 979.8,373.0 996.5,403.6 1013.2,377.1 1029.9,344.6 1046.6,354.2 1063.2,399.8 1079.9,310.7 1096.6,204.8 1113.3,246.9 1130.0,266.1" fill="none" stroke="#244A71" stroke-width="4.5"/>
  <circle cx="112.0" cy="593.6" r="5.5" fill="#244A71" stroke="#FFFFFF" stroke-width="2"/>
  <circle cx="362.3" cy="561.3" r="5.5" fill="#C8971D" stroke="#FFFFFF" stroke-width="2"/>
  <circle cx="395.7" cy="504.9" r="5.5" fill="#C8971D" stroke="#FFFFFF" stroke-width="2"/>
  <circle cx="1130.0" cy="266.1" r="5.5" fill="#244A71" stroke="#FFFFFF" stroke-width="2"/>
  <rect x="864" y="226" width="250" height="132" rx="20" fill="#FFFDF4" stroke="#E9D8A6"/>
  <text x="884.0" y="260.0" font-size="13" font-family="Arial, Helvetica, sans-serif" fill="#667085" font-weight="700" text-anchor="start">Fuel shock window</text>
  <text x="884.0" y="292.0" font-size="22" font-family="Arial, Helvetica, sans-serif" fill="#101828" font-weight="700" text-anchor="start">1978 to 1980: $0.627 -&gt; $1.191</text>
  <text x="884.0" y="324.0" font-size="16" font-family="Arial, Helvetica, sans-serif" fill="#C65A6A" font-weight="700" text-anchor="start">A nearly 90% jump in two years.</text>
  <text x="884.0" y="348.0" font-size="12" font-family="Arial, Helvetica, sans-serif" fill="#667085" font-weight="400" text-anchor="start">2024 annual average: $3.579</text>
  <text x="112.0" y="668.0" font-size="11" font-family="Arial, Helvetica, sans-serif" fill="#667085" font-weight="400" text-anchor="start">Source: EIA Table 9.4 annual averages, spliced from leaded regular gasoline to regular gasoline after 1990.</text>
  <text x="112.0" y="688.0" font-size="11" font-family="Arial, Helvetica, sans-serif" fill="#667085" font-weight="400" text-anchor="start">The file is a bridge chart on its own, not just a hidden helper for the composite page.</text>
</svg>