<svg xmlns="http://www.w3.org/2000/svg" width="1240" height="1100" viewBox="0 0 1240 1100" role="img" aria-label="The road stopped being teen-heavy">
  <defs>
    <linearGradient id="bgFade" x1="0" x2="1" y1="0" y2="1">
      <stop offset="0%" stop-color="#FFFDF8"/>
      <stop offset="100%" stop-color="#F7F2E8"/>
    </linearGradient>
    <filter id="softShadow" x="-20%" y="-20%" width="140%" height="140%">
      <feDropShadow dx="0" dy="8" stdDeviation="12" flood-color="#0D1321" flood-opacity="0.10"/>
    </filter>
  </defs>
  <rect x="0" y="0" width="1240" height="1100" rx="30" fill="url(#bgFade)"/>
  <g filter="url(#softShadow)">
    <rect x="22" y="22" width="1196" height="1056" rx="24" fill="white" opacity="0.88"/>
  </g>
  <text x="52" y="72" font-size="30" font-family="Georgia, 'Times New Roman', serif" font-weight="700" fill="#101828">The road stopped being teen-heavy</text>
  <text x="52" y="102" font-size="14" font-family="Arial, Helvetica, sans-serif" fill="#475467">A focused look at how the youth slice of the driver pool has thinned over time.</text>
  <line x1="120" y1="180.0" x2="1130" y2="180.0" stroke="#E5E7EB" stroke-width="1"/>
  <text x="102.0" y="184.0" font-size="11" font-family="Arial, Helvetica, sans-serif" fill="#667085" font-weight="400" text-anchor="end">8%</text>
  <line x1="120" y1="268.0" x2="1130" y2="268.0" stroke="#E5E7EB" stroke-width="1"/>
  <text x="102.0" y="272.0" font-size="11" font-family="Arial, Helvetica, sans-serif" fill="#667085" font-weight="400" text-anchor="end">6%</text>
  <line x1="120" y1="356.0" x2="1130" y2="356.0" stroke="#E5E7EB" stroke-width="1"/>
  <text x="102.0" y="360.0" font-size="11" font-family="Arial, Helvetica, sans-serif" fill="#667085" font-weight="400" text-anchor="end">5%</text>
  <line x1="120" y1="444.0" x2="1130" y2="444.0" stroke="#E5E7EB" stroke-width="1"/>
  <text x="102.0" y="448.0" font-size="11" font-family="Arial, Helvetica, sans-serif" fill="#667085" font-weight="400" text-anchor="end">3%</text>
  <line x1="120" y1="532.0" x2="1130" y2="532.0" stroke="#E5E7EB" stroke-width="1"/>
  <text x="102.0" y="536.0" font-size="11" font-family="Arial, Helvetica, sans-serif" fill="#667085" font-weight="400" text-anchor="end">2%</text>
  <line x1="120" y1="620.0" x2="1130" y2="620.0" stroke="#E5E7EB" stroke-width="1"/>
  <text x="102.0" y="624.0" font-size="11" font-family="Arial, Helvetica, sans-serif" fill="#667085" font-weight="400" text-anchor="end">0%</text>
  <line x1="120.0" y1="180" x2="120.0" y2="620" stroke="#F2F4F7" stroke-width="1"/>
  <text x="120.0" y="642.0" font-size="10" font-family="Arial, Helvetica, sans-serif" fill="#667085" font-weight="400" text-anchor="middle">1963</text>
  <line x1="202.8" y1="180" x2="202.8" y2="620" stroke="#F2F4F7" stroke-width="1"/>
  <text x="202.8" y="642.0" font-size="10" font-family="Arial, Helvetica, sans-serif" fill="#667085" font-weight="400" text-anchor="middle">1968</text>
  <line x1="285.6" y1="180" x2="285.6" y2="620" stroke="#F2F4F7" stroke-width="1"/>
  <text x="285.6" y="642.0" font-size="10" font-family="Arial, Helvetica, sans-serif" fill="#667085" font-weight="400" text-anchor="middle">1973</text>
  <line x1="368.4" y1="180" x2="368.4" y2="620" stroke="#F2F4F7" stroke-width="1"/>
  <text x="368.4" y="642.0" font-size="10" font-family="Arial, Helvetica, sans-serif" fill="#667085" font-weight="400" text-anchor="middle">1978</text>
  <line x1="451.1" y1="180" x2="451.1" y2="620" stroke="#F2F4F7" stroke-width="1"/>
  <text x="451.1" y="642.0" font-size="10" font-family="Arial, Helvetica, sans-serif" fill="#667085" font-weight="400" text-anchor="middle">1983</text>
  <line x1="533.9" y1="180" x2="533.9" y2="620" stroke="#F2F4F7" stroke-width="1"/>
  <text x="533.9" y="642.0" font-size="10" font-family="Arial, Helvetica, sans-serif" fill="#667085" font-weight="400" text-anchor="middle">1988</text>
  <line x1="616.7" y1="180" x2="616.7" y2="620" stroke="#F2F4F7" stroke-width="1"/>
  <text x="616.7" y="642.0" font-size="10" font-family="Arial, Helvetica, sans-serif" fill="#667085" font-weight="400" text-anchor="middle">1993</text>
  <line x1="699.5" y1="180" x2="699.5" y2="620" stroke="#F2F4F7" stroke-width="1"/>
  <text x="699.5" y="642.0" font-size="10" font-family="Arial, Helvetica, sans-serif" fill="#667085" font-weight="400" text-anchor="middle">1998</text>
  <line x1="782.3" y1="180" x2="782.3" y2="620" stroke="#F2F4F7" stroke-width="1"/>
  <text x="782.3" y="642.0" font-size="10" font-family="Arial, Helvetica, sans-serif" fill="#667085" font-weight="400" text-anchor="middle">2003</text>
  <line x1="865.1" y1="180" x2="865.1" y2="620" stroke="#F2F4F7" stroke-width="1"/>
  <text x="865.1" y="642.0" font-size="10" font-family="Arial, Helvetica, sans-serif" fill="#667085" font-weight="400" text-anchor="middle">2008</text>
  <line x1="947.9" y1="180" x2="947.9" y2="620" stroke="#F2F4F7" stroke-width="1"/>
  <text x="947.9" y="642.0" font-size="10" font-family="Arial, Helvetica, sans-serif" fill="#667085" font-weight="400" text-anchor="middle">2013</text>
  <line x1="1030.7" y1="180" x2="1030.7" y2="620" stroke="#F2F4F7" stroke-width="1"/>
  <text x="1030.7" y="642.0" font-size="10" font-family="Arial, Helvetica, sans-serif" fill="#667085" font-weight="400" text-anchor="middle">2018</text>
  <line x1="1113.4" y1="180" x2="1113.4" y2="620" stroke="#F2F4F7" stroke-width="1"/>
  <text x="1113.4" y="642.0" font-size="10" font-family="Arial, Helvetica, sans-serif" fill="#667085" font-weight="400" text-anchor="middle">2023</text>
  <rect x="120" y="320" width="1010" height="120" rx="20" fill="#FFF6EF" opacity="0.95"/>
  <polyline points="120.0,323.2 136.6,297.9 153.1,281.5 169.7,286.6 186.2,296.0 202.8,296.9 219.3,288.9 235.9,285.3 252.5,294.1 269.0,288.7 285.6,277.0 302.1,274.8 318.7,277.5 335.2,285.7 351.8,296.7 368.4,299.2 384.9,307.9 401.5,322.5 418.0,335.3 434.6,352.0 451.1,352.0 467.7,375.8 484.3,381.8 500.8,383.7 517.4,383.9 533.9,388.4 550.5,402.0 567.0,416.8 583.6,427.0 600.2,430.0 616.7,428.5 633.3,426.8 649.8,421.4 666.4,423.5 683.0,416.3 699.5,418.8 716.1,427.4 732.6,428.5 749.2,438.6 765.7,446.7 782.3,446.0 798.9,448.7 815.4,450.9 832.0,446.9 848.5,446.8 865.1,450.4 881.6,456.0 898.2,462.3 914.8,470.3 931.3,472.2 947.9,468.2 964.4,480.2 981.0,480.4 997.5,478.4 1014.1,480.4 1030.7,482.9 1047.2,483.7 1063.8,490.8 1080.3,490.5 1096.9,491.1 1113.4,488.2 1130.0,484.8" fill="none" stroke="#0F172A" stroke-width="5" opacity="0.96"/>
  <circle cx="120.0" cy="323.2" r="5" fill="#0F172A"/>
  <circle cx="1130.0" cy="484.8" r="5" fill="#0F172A"/>
  <polyline points="120.0,521.5 136.6,496.5 153.1,481.0 169.7,484.8 186.2,487.7 202.8,492.3 219.3,484.1 235.9,481.0 252.5,484.5 269.0,480.3 285.6,484.4 302.1,479.5 318.7,479.4 335.2,483.9 351.8,486.6 368.4,489.1 384.9,491.3 401.5,497.1 418.0,500.6 434.6,504.9 451.1,504.9 467.7,520.1 484.3,522.6 500.8,526.4 517.4,525.1 533.9,523.5 550.5,526.8 567.0,534.5 583.6,539.7 600.2,541.2 616.7,541.7 633.3,541.9 649.8,540.2 666.4,541.8 683.0,538.7 699.5,538.4 716.1,538.7 732.6,538.1 749.2,540.8 765.7,544.2 782.3,542.5 798.9,543.5 815.4,544.1 832.0,543.1 848.5,543.2 865.1,543.2 881.6,545.9 898.2,547.8 914.8,551.2 931.3,553.3 947.9,550.5 964.4,554.7 981.0,555.7 997.5,555.1 1014.1,555.8 1030.7,556.4 1047.2,556.9 1063.8,560.5 1080.3,559.5 1096.9,559.5 1113.4,559.1 1130.0,558.2" fill="none" stroke="#C65A6A" stroke-width="3.25" opacity="0.94" stroke-dasharray="7 5"/>
  <circle cx="120.0" cy="521.5" r="5" fill="#C65A6A"/>
  <circle cx="1130.0" cy="558.2" r="5" fill="#C65A6A"/>
  <text x="160.0" y="162.0" font-size="13" font-family="Arial, Helvetica, sans-serif" fill="#0F172A" font-weight="700" text-anchor="middle">16-18 combined share</text>
  <text x="160.0" y="182.0" font-size="13" font-family="Arial, Helvetica, sans-serif" fill="#667085" font-weight="400" text-anchor="middle">Ages 16, 17, and 18 as a share of all licensed drivers</text>
  <rect x="150" y="690" width="280" height="250" rx="24" fill="#FFFFFF" stroke="#E5E7EB"/>
  <text x="290.0" y="732.0" font-size="14" font-family="Arial, Helvetica, sans-serif" fill="#667085" font-weight="700" text-anchor="middle">1963</text>
  <text x="290.0" y="774.0" font-size="34" font-family="Arial, Helvetica, sans-serif" fill="#0F172A" font-weight="700" text-anchor="middle">5.40%</text>
  <text x="290.0" y="806.0" font-size="13" font-family="Arial, Helvetica, sans-serif" fill="#101828" font-weight="400" text-anchor="middle">Ages 16-18 share of all licensed drivers</text>
  <text x="290.0" y="838.0" font-size="12" font-family="Arial, Helvetica, sans-serif" fill="#667085" font-weight="400" text-anchor="middle">Teen licensing was a much bigger part of the driving economy.</text>
  <rect x="470" y="690" width="280" height="250" rx="24" fill="#FFFFFF" stroke="#E5E7EB"/>
  <text x="610.0" y="732.0" font-size="14" font-family="Arial, Helvetica, sans-serif" fill="#667085" font-weight="700" text-anchor="middle">2024</text>
  <text x="610.0" y="774.0" font-size="34" font-family="Arial, Helvetica, sans-serif" fill="#0F172A" font-weight="700" text-anchor="middle">2.46%</text>
  <text x="610.0" y="806.0" font-size="13" font-family="Arial, Helvetica, sans-serif" fill="#101828" font-weight="400" text-anchor="middle">Ages 16-18 share of all licensed drivers</text>
  <text x="610.0" y="838.0" font-size="12" font-family="Arial, Helvetica, sans-serif" fill="#667085" font-weight="400" text-anchor="middle">The teen slice is still much smaller than it was before adulthood got delayed.</text>
  <rect x="790" y="690" width="330" height="250" rx="24" fill="#FFFFFF" stroke="#E5E7EB"/>
  <text x="955.0" y="732.0" font-size="14" font-family="Arial, Helvetica, sans-serif" fill="#667085" font-weight="700" text-anchor="middle">The hardest number to ignore</text>
  <text x="955.0" y="774.0" font-size="34" font-family="Arial, Helvetica, sans-serif" fill="#C65A6A" font-weight="700" text-anchor="middle">1.12%</text>
  <text x="955.0" y="806.0" font-size="13" font-family="Arial, Helvetica, sans-serif" fill="#101828" font-weight="400" text-anchor="middle">18-year-olds as a share of all licensed drivers in 2024</text>
  <text x="955.0" y="838.0" font-size="12" font-family="Arial, Helvetica, sans-serif" fill="#667085" font-weight="400" text-anchor="middle">That is the single cleanest teen-autonomy statistic in the table.</text>
  <text x="620.0" y="1032.0" font-size="11" font-family="Arial, Helvetica, sans-serif" fill="#667085" font-weight="400" text-anchor="middle">Source: FHWA Highway Statistics Table DL-220 via data.transportation.gov. Percentages are each cohort&#x27;s share of all licensed drivers in that year.</text>
</svg>