<svg xmlns="http://www.w3.org/2000/svg" width="920" height="360" viewBox="0 0 920 360" role="img" aria-label="18-year-old rate, compact view">
  <defs>
    <linearGradient id="bgFade" x1="0" x2="1" y1="0" y2="1">
      <stop offset="0%" stop-color="#FFFDF8"/>
      <stop offset="100%" stop-color="#F7F2E8"/>
    </linearGradient>
    <filter id="softShadow" x="-20%" y="-20%" width="140%" height="140%">
      <feDropShadow dx="0" dy="8" stdDeviation="12" flood-color="#0D1321" flood-opacity="0.10"/>
    </filter>
  </defs>
  <rect x="0" y="0" width="920" height="360" rx="30" fill="url(#bgFade)"/>
  <g filter="url(#softShadow)">
    <rect x="22" y="22" width="876" height="316" rx="24" fill="white" opacity="0.88"/>
  </g>
  <text x="52" y="72" font-size="30" font-family="Georgia, 'Times New Roman', serif" font-weight="700" fill="#101828">18-year-old rate, compact view</text>
  <text x="52" y="102" font-size="14" font-family="Arial, Helvetica, sans-serif" fill="#475467">A minimal backup card that isolates the single age at the center of the story.</text>
  <text x="44.0" y="74.0" font-size="28" font-family="Arial, Helvetica, sans-serif" fill="#101828" font-weight="700" text-anchor="start">18-year-olds</text>
  <text x="44.0" y="106.0" font-size="14" font-family="Arial, Helvetica, sans-serif" fill="#475467" font-weight="400" text-anchor="start">The cleanest single-age anchor in the DL-20 rate table.</text>
  <text x="44.0" y="138.0" font-size="34" font-family="Arial, Helvetica, sans-serif" fill="#C65A6A" font-weight="700" text-anchor="start">60.4% licensed in 2024</text>
  <line x1="340" y1="128.0" x2="848" y2="128.0" stroke="#E5E7EB" stroke-width="1"/>
  <text x="330.0" y="132.0" font-size="10" font-family="Arial, Helvetica, sans-serif" fill="#667085" font-weight="400" text-anchor="end">64%</text>
  <line x1="340" y1="159.0" x2="848" y2="159.0" stroke="#E5E7EB" stroke-width="1"/>
  <text x="330.0" y="163.0" font-size="10" font-family="Arial, Helvetica, sans-serif" fill="#667085" font-weight="400" text-anchor="end">62%</text>
  <line x1="340" y1="190.0" x2="848" y2="190.0" stroke="#E5E7EB" stroke-width="1"/>
  <text x="330.0" y="194.0" font-size="10" font-family="Arial, Helvetica, sans-serif" fill="#667085" font-weight="400" text-anchor="end">60%</text>
  <line x1="340" y1="221.0" x2="848" y2="221.0" stroke="#E5E7EB" stroke-width="1"/>
  <text x="330.0" y="225.0" font-size="10" font-family="Arial, Helvetica, sans-serif" fill="#667085" font-weight="400" text-anchor="end">58%</text>
  <line x1="340" y1="252.0" x2="848" y2="252.0" stroke="#E5E7EB" stroke-width="1"/>
  <text x="330.0" y="256.0" font-size="10" font-family="Arial, Helvetica, sans-serif" fill="#667085" font-weight="400" text-anchor="end">56%</text>
  <line x1="340.0" y1="128" x2="340.0" y2="252" stroke="#F3F4F6" stroke-width="1"/>
  <line x1="412.6" y1="128" x2="412.6" y2="252" stroke="#F3F4F6" stroke-width="1"/>
  <line x1="485.1" y1="128" x2="485.1" y2="252" stroke="#F3F4F6" stroke-width="1"/>
  <line x1="557.7" y1="128" x2="557.7" y2="252" stroke="#F3F4F6" stroke-width="1"/>
  <line x1="630.3" y1="128" x2="630.3" y2="252" stroke="#F3F4F6" stroke-width="1"/>
  <line x1="702.9" y1="128" x2="702.9" y2="252" stroke="#F3F4F6" stroke-width="1"/>
  <line x1="775.4" y1="128" x2="775.4" y2="252" stroke="#F3F4F6" stroke-width="1"/>
  <line x1="848.0" y1="128" x2="848.0" y2="252" stroke="#F3F4F6" stroke-width="1"/>
  <polyline points="340.0,155.9 412.6,205.5 485.1,188.4 557.7,157.4 630.3,176.1 702.9,221.0 775.4,193.1 848.0,183.8" fill="none" stroke="#C65A6A" stroke-width="4.5"/>
  <circle cx="340.0" cy="155.9" r="5.2" fill="#C65A6A" stroke="#fff" stroke-width="2"/>
  <circle cx="412.6" cy="205.5" r="5.2" fill="#C65A6A" stroke="#fff" stroke-width="2"/>
  <circle cx="485.1" cy="188.4" r="5.2" fill="#C65A6A" stroke="#fff" stroke-width="2"/>
  <circle cx="557.7" cy="157.4" r="5.2" fill="#C65A6A" stroke="#fff" stroke-width="2"/>
  <circle cx="630.3" cy="176.1" r="5.2" fill="#C65A6A" stroke="#fff" stroke-width="2"/>
  <circle cx="702.9" cy="221.0" r="5.2" fill="#C65A6A" stroke="#fff" stroke-width="2"/>
  <circle cx="775.4" cy="193.1" r="5.2" fill="#C65A6A" stroke="#fff" stroke-width="2"/>
  <circle cx="848.0" cy="183.8" r="5.2" fill="#C65A6A" stroke="#fff" stroke-width="2"/>
  <text x="340.0" y="272.0" font-size="10" font-family="Arial, Helvetica, sans-serif" fill="#667085" font-weight="400" text-anchor="start">2010</text>
  <text x="848.0" y="272.0" font-size="10" font-family="Arial, Helvetica, sans-serif" fill="#667085" font-weight="400" text-anchor="end">2024</text>
  <text x="842.0" y="173.8" font-size="10" font-family="Arial, Helvetica, sans-serif" fill="#8A1F2F" font-weight="700" text-anchor="start">2024</text>
  <text x="620.0" y="330.0" font-size="11" font-family="Arial, Helvetica, sans-serif" fill="#667085" font-weight="400" text-anchor="middle">Source: FHWA DL-20 age-rate tables, 2010 to 2024.</text>
</svg>