<svg xmlns="http://www.w3.org/2000/svg" width="1320" height="1020" viewBox="0 0 1320 1020" role="img" aria-label="Summer work and teen licensing moved together">
  <defs>
    <linearGradient id="bgFade" x1="0" x2="1" y1="0" y2="1">
      <stop offset="0%" stop-color="#FFFDF8"/>
      <stop offset="100%" stop-color="#F7F2E8"/>
    </linearGradient>
    <filter id="softShadow" x="-20%" y="-20%" width="140%" height="140%">
      <feDropShadow dx="0" dy="8" stdDeviation="12" flood-color="#0D1321" flood-opacity="0.10"/>
    </filter>
  </defs>
  <rect x="0" y="0" width="1320" height="1020" rx="30" fill="url(#bgFade)"/>
  <g filter="url(#softShadow)">
    <rect x="22" y="22" width="1276" height="976" rx="24" fill="white" opacity="0.88"/>
  </g>
  <text x="52" y="72" font-size="30" font-family="Georgia, 'Times New Roman', serif" font-weight="700" fill="#101828">Summer work and teen licensing moved together</text>
  <text x="52" y="102" font-size="14" font-family="Arial, Helvetica, sans-serif" fill="#475467">Indexed to 1963 = 100 so the direction of travel is easy to compare across two different measures.</text>
  <text x="120.0" y="132.0" font-size="13" font-family="Arial, Helvetica, sans-serif" fill="#667085" font-weight="400" text-anchor="start">Indexed youth work and teen licensing</text>
  <text x="120.0" y="154.0" font-size="18" font-family="Arial, Helvetica, sans-serif" fill="#101828" font-weight="700" text-anchor="start">Both series are indexed to 1963 = 100 so we can compare the direction of change cleanly.</text>
  <text x="120.0" y="178.0" font-size="13" font-family="Arial, Helvetica, sans-serif" fill="#667085" font-weight="400" text-anchor="start">July youth LFPR for ages 16-24 vs. ages 16-18 as a share of all licensed drivers.</text>
  <line x1="120" y1="180.0" x2="1140" y2="180.0" stroke="#E5E7EB" stroke-width="1"/>
  <text x="102.0" y="184.0" font-size="11" font-family="Arial, Helvetica, sans-serif" fill="#667085" font-weight="400" text-anchor="end">125</text>
  <line x1="120" y1="278.0" x2="1140" y2="278.0" stroke="#E5E7EB" stroke-width="1"/>
  <text x="102.0" y="282.0" font-size="11" font-family="Arial, Helvetica, sans-serif" fill="#667085" font-weight="400" text-anchor="end">108</text>
  <line x1="120" y1="376.0" x2="1140" y2="376.0" stroke="#E5E7EB" stroke-width="1"/>
  <text x="102.0" y="380.0" font-size="11" font-family="Arial, Helvetica, sans-serif" fill="#667085" font-weight="400" text-anchor="end">91</text>
  <line x1="120" y1="474.0" x2="1140" y2="474.0" stroke="#E5E7EB" stroke-width="1"/>
  <text x="102.0" y="478.0" font-size="11" font-family="Arial, Helvetica, sans-serif" fill="#667085" font-weight="400" text-anchor="end">74</text>
  <line x1="120" y1="572.0" x2="1140" y2="572.0" stroke="#E5E7EB" stroke-width="1"/>
  <text x="102.0" y="576.0" font-size="11" font-family="Arial, Helvetica, sans-serif" fill="#667085" font-weight="400" text-anchor="end">57</text>
  <line x1="120" y1="670.0" x2="1140" y2="670.0" stroke="#E5E7EB" stroke-width="1"/>
  <text x="102.0" y="674.0" font-size="11" font-family="Arial, Helvetica, sans-serif" fill="#667085" font-weight="400" text-anchor="end">40</text>
  <line x1="120.0" y1="180" x2="120.0" y2="670" stroke="#F2F4F7" stroke-width="1"/>
  <text x="120.0" y="694.0" font-size="10" font-family="Arial, Helvetica, sans-serif" fill="#667085" font-weight="400" text-anchor="middle">1963</text>
  <line x1="203.6" y1="180" x2="203.6" y2="670" stroke="#F2F4F7" stroke-width="1"/>
  <text x="203.6" y="694.0" font-size="10" font-family="Arial, Helvetica, sans-serif" fill="#667085" font-weight="400" text-anchor="middle">1968</text>
  <line x1="287.2" y1="180" x2="287.2" y2="670" stroke="#F2F4F7" stroke-width="1"/>
  <text x="287.2" y="694.0" font-size="10" font-family="Arial, Helvetica, sans-serif" fill="#667085" font-weight="400" text-anchor="middle">1973</text>
  <line x1="370.8" y1="180" x2="370.8" y2="670" stroke="#F2F4F7" stroke-width="1"/>
  <text x="370.8" y="694.0" font-size="10" font-family="Arial, Helvetica, sans-serif" fill="#667085" font-weight="400" text-anchor="middle">1978</text>
  <line x1="454.4" y1="180" x2="454.4" y2="670" stroke="#F2F4F7" stroke-width="1"/>
  <text x="454.4" y="694.0" font-size="10" font-family="Arial, Helvetica, sans-serif" fill="#667085" font-weight="400" text-anchor="middle">1983</text>
  <line x1="538.0" y1="180" x2="538.0" y2="670" stroke="#F2F4F7" stroke-width="1"/>
  <text x="538.0" y="694.0" font-size="10" font-family="Arial, Helvetica, sans-serif" fill="#667085" font-weight="400" text-anchor="middle">1988</text>
  <line x1="621.6" y1="180" x2="621.6" y2="670" stroke="#F2F4F7" stroke-width="1"/>
  <text x="621.6" y="694.0" font-size="10" font-family="Arial, Helvetica, sans-serif" fill="#667085" font-weight="400" text-anchor="middle">1993</text>
  <line x1="705.2" y1="180" x2="705.2" y2="670" stroke="#F2F4F7" stroke-width="1"/>
  <text x="705.2" y="694.0" font-size="10" font-family="Arial, Helvetica, sans-serif" fill="#667085" font-weight="400" text-anchor="middle">1998</text>
  <line x1="788.9" y1="180" x2="788.9" y2="670" stroke="#F2F4F7" stroke-width="1"/>
  <text x="788.9" y="694.0" font-size="10" font-family="Arial, Helvetica, sans-serif" fill="#667085" font-weight="400" text-anchor="middle">2003</text>
  <line x1="872.5" y1="180" x2="872.5" y2="670" stroke="#F2F4F7" stroke-width="1"/>
  <text x="872.5" y="694.0" font-size="10" font-family="Arial, Helvetica, sans-serif" fill="#667085" font-weight="400" text-anchor="middle">2008</text>
  <line x1="956.1" y1="180" x2="956.1" y2="670" stroke="#F2F4F7" stroke-width="1"/>
  <text x="956.1" y="694.0" font-size="10" font-family="Arial, Helvetica, sans-serif" fill="#667085" font-weight="400" text-anchor="middle">2013</text>
  <line x1="1039.7" y1="180" x2="1039.7" y2="670" stroke="#F2F4F7" stroke-width="1"/>
  <text x="1039.7" y="694.0" font-size="10" font-family="Arial, Helvetica, sans-serif" fill="#667085" font-weight="400" text-anchor="middle">2018</text>
  <line x1="1123.3" y1="180" x2="1123.3" y2="670" stroke="#F2F4F7" stroke-width="1"/>
  <text x="1123.3" y="694.0" font-size="10" font-family="Arial, Helvetica, sans-serif" fill="#667085" font-weight="400" text-anchor="middle">2023</text>
  <polyline points="120.0,324.1 136.7,327.7 153.4,308.7 170.2,296.0 186.9,287.0 203.6,286.0 220.3,278.8 237.0,277.9 253.8,276.1 270.5,264.3 287.2,248.9 303.9,237.1 320.7,238.9 337.4,228.9 354.1,223.5 370.8,207.2 387.5,206.3 404.3,209.0 421.0,218.1 437.7,223.5 454.4,215.3 471.1,209.0 487.9,207.2 504.6,205.4 521.3,209.0 538.0,203.6 554.8,198.1 571.5,219.9 588.2,233.5 604.9,224.4 621.6,225.3 638.4,228.9 655.1,227.1 671.8,236.2 688.5,238.9 705.2,240.7 722.0,242.5 738.7,251.6 755.4,259.8 772.1,270.6 788.9,290.6 805.6,291.5 822.3,296.9 839.0,296.0 855.7,311.4 872.5,310.5 889.2,329.6 905.9,352.2 922.6,361.3 939.3,352.2 956.1,352.2 972.8,352.2 989.5,356.7 1006.2,355.8 1023.0,351.3 1039.7,351.3 1056.4,340.4 1073.1,381.2 1089.8,352.2 1106.6,353.1 1123.3,354.9 1140.0,353.1" fill="none" stroke="#244A71" stroke-width="4" stroke-linecap="round" stroke-linejoin="round"/>
  <circle cx="120.0" cy="324.1" r="4.5" fill="#244A71"/>
  <circle cx="237.0" cy="277.9" r="4.5" fill="#244A71"/>
  <circle cx="354.1" cy="223.5" r="4.5" fill="#244A71"/>
  <circle cx="471.1" cy="209.0" r="4.5" fill="#244A71"/>
  <circle cx="588.2" cy="233.5" r="4.5" fill="#244A71"/>
  <circle cx="705.2" cy="240.7" r="4.5" fill="#244A71"/>
  <circle cx="822.3" cy="296.9" r="4.5" fill="#244A71"/>
  <circle cx="939.3" cy="352.2" r="4.5" fill="#244A71"/>
  <circle cx="1056.4" cy="340.4" r="4.5" fill="#244A71"/>
  <polyline points="120.0,324.1 136.7,274.9 153.4,243.0 170.2,252.9 186.9,271.2 203.6,272.9 220.3,257.3 237.0,250.5 253.8,267.4 270.5,257.0 287.2,234.3 303.9,230.0 320.7,235.2 337.4,251.1 354.1,272.6 370.8,277.4 387.5,294.3 404.3,322.6 421.0,347.6 437.7,380.0 454.4,380.0 471.1,426.2 487.9,437.9 504.6,441.7 521.3,442.1 538.0,450.7 554.8,477.1 571.5,505.9 588.2,525.7 604.9,531.5 621.6,528.6 638.4,525.2 655.1,514.9 671.8,518.8 688.5,505.0 705.2,509.7 722.0,526.5 738.7,528.6 755.4,548.3 772.1,564.0 788.9,562.6 805.6,567.8 822.3,572.1 839.0,564.3 855.7,564.1 872.5,571.1 889.2,582.0 905.9,594.2 922.6,609.9 939.3,613.4 956.1,605.7 972.8,629.0 989.5,629.4 1006.2,625.5 1023.0,629.5 1039.7,634.3 1056.4,635.9 1073.1,649.6 1089.8,649.1 1106.6,650.3 1123.3,644.6 1140.0,637.9" fill="none" stroke="#C65A6A" stroke-width="4" stroke-linecap="round" stroke-linejoin="round" stroke-dasharray="8 5"/>
  <circle cx="120.0" cy="324.1" r="4.5" fill="#C65A6A"/>
  <circle cx="237.0" cy="250.5" r="4.5" fill="#C65A6A"/>
  <circle cx="354.1" cy="272.6" r="4.5" fill="#C65A6A"/>
  <circle cx="471.1" cy="426.2" r="4.5" fill="#C65A6A"/>
  <circle cx="588.2" cy="525.7" r="4.5" fill="#C65A6A"/>
  <circle cx="705.2" cy="509.7" r="4.5" fill="#C65A6A"/>
  <circle cx="822.3" cy="572.1" r="4.5" fill="#C65A6A"/>
  <circle cx="939.3" cy="613.4" r="4.5" fill="#C65A6A"/>
  <circle cx="1056.4" cy="635.9" r="4.5" fill="#C65A6A"/>
  <line x1="120" y1="324.1" x2="1140" y2="324.1" stroke="#94A3B8" stroke-width="2.5" stroke-dasharray="8 6"/>
  <text x="1140.0" y="314.1" font-size="11" font-family="Arial, Helvetica, sans-serif" fill="#64748B" font-weight="700" text-anchor="end">1963 = 100</text>
  <rect x="120" y="730" width="280" height="220" rx="24" fill="#FFFFFF" stroke="#E5E7EB"/>
  <text x="260.0" y="764.0" font-size="13" font-family="Arial, Helvetica, sans-serif" fill="#667085" font-weight="700" text-anchor="middle">Youth work</text>
  <text x="260.0" y="814.0" font-size="30" font-family="Arial, Helvetica, sans-serif" fill="#101828" font-weight="700" text-anchor="middle">63.6% -&gt; 60.4%</text>
  <text x="260.0" y="848.0" font-size="12" font-family="Arial, Helvetica, sans-serif" fill="#244A71" font-weight="400" text-anchor="middle">100 -&gt; 95 indexed</text>
  <text x="260.0" y="884.0" font-size="12" font-family="Arial, Helvetica, sans-serif" fill="#667085" font-weight="400" text-anchor="middle">-5.0% since 1963</text>
  <rect x="460" y="730" width="280" height="220" rx="24" fill="#FFFFFF" stroke="#E5E7EB"/>
  <text x="600.0" y="764.0" font-size="13" font-family="Arial, Helvetica, sans-serif" fill="#667085" font-weight="700" text-anchor="middle">Teen licensure</text>
  <text x="600.0" y="814.0" font-size="30" font-family="Arial, Helvetica, sans-serif" fill="#101828" font-weight="700" text-anchor="middle">5.40% -&gt; 2.46%</text>
  <text x="600.0" y="848.0" font-size="12" font-family="Arial, Helvetica, sans-serif" fill="#C65A6A" font-weight="400" text-anchor="middle">100 -&gt; 46 indexed</text>
  <text x="600.0" y="884.0" font-size="12" font-family="Arial, Helvetica, sans-serif" fill="#667085" font-weight="400" text-anchor="middle">-54.4% since 1963</text>
  <rect x="800" y="730" width="280" height="220" rx="24" fill="#FFFFFF" stroke="#E5E7EB"/>
  <text x="940.0" y="764.0" font-size="13" font-family="Arial, Helvetica, sans-serif" fill="#667085" font-weight="700" text-anchor="middle">Shared years</text>
  <text x="940.0" y="814.0" font-size="30" font-family="Arial, Helvetica, sans-serif" fill="#101828" font-weight="700" text-anchor="middle">1963 to 2024</text>
  <text x="940.0" y="848.0" font-size="12" font-family="Arial, Helvetica, sans-serif" fill="#101828" font-weight="400" text-anchor="middle">BLS youth series + FHWA DL-220</text>
  <text x="940.0" y="884.0" font-size="12" font-family="Arial, Helvetica, sans-serif" fill="#667085" font-weight="400" text-anchor="middle">Indexed to the same starting point</text>
  <text x="120.0" y="960.0" font-size="11" font-family="Arial, Helvetica, sans-serif" fill="#667085" font-weight="400" text-anchor="start">Source: BLS July youth labor-force participation series, with 2024 appended from the current TED update; FHWA DL-220 licensed-driver counts via data.transportation.gov.</text>
  <text x="120.0" y="982.0" font-size="11" font-family="Arial, Helvetica, sans-serif" fill="#667085" font-weight="400" text-anchor="start">The licensure line uses ages 16-18 as a share of all licensed drivers. The chart is indexed because the base rates are very different.</text>
</svg>