<svg xmlns="http://www.w3.org/2000/svg" width="1300" height="1020" viewBox="0 0 1300 1020" role="img" aria-label="How many minimum-wage hours a car basket required">
  <defs>
    <linearGradient id="bgFade" x1="0" x2="1" y1="0" y2="1">
      <stop offset="0%" stop-color="#FFFDF8"/>
      <stop offset="100%" stop-color="#F7F2E8"/>
    </linearGradient>
    <filter id="softShadow" x="-20%" y="-20%" width="140%" height="140%">
      <feDropShadow dx="0" dy="8" stdDeviation="12" flood-color="#0D1321" flood-opacity="0.10"/>
    </filter>
  </defs>
  <rect x="0" y="0" width="1300" height="1020" rx="30" fill="url(#bgFade)"/>
  <g filter="url(#softShadow)">
    <rect x="22" y="22" width="1256" height="976" rx="24" fill="white" opacity="0.92"/>
  </g>
  <text x="52" y="72" font-size="30" font-family="Georgia, 'Times New Roman', serif" font-weight="700" fill="#101828">How many minimum-wage hours a car basket required</text>
  <text x="52" y="102" font-size="14" font-family="Arial, Helvetica, sans-serif" fill="#475467">A long-run affordability line from 1963 to 2024.</text>
  <text x="118.0" y="132.0" font-size="13" font-family="Arial, Helvetica, sans-serif" fill="#667085" font-weight="400" text-anchor="start">Minimum-wage hours needed for a teen driving basket</text>
  <text x="118.0" y="154.0" font-size="18" font-family="Arial, Helvetica, sans-serif" fill="#101828" font-weight="700" text-anchor="start">Annual used-vehicle purchases, vehicle insurance, and gasoline spending, backcast to 1963 with official price series.</text>
  <text x="118.0" y="178.0" font-size="13" font-family="Arial, Helvetica, sans-serif" fill="#667085" font-weight="400" text-anchor="start">The basket is indexed from annual household spending anchors, so the result reads like the cost of ownership, not a sticker-price-only proxy.</text>
  <rect x="84" y="198" width="1136" height="492" rx="28" fill="#FFFFFF" stroke="#E5E7EB"/>
  <line x1="118" y1="355.3" x2="1178" y2="355.3" stroke="#C8971D" stroke-width="2" stroke-dasharray="7 6"/>
  <text x="1178.0" y="347.3" font-size="11" font-family="Arial, Helvetica, sans-serif" fill="#C8971D" font-weight="700" text-anchor="end">12 weeks at 40 hours/week = 480 hours</text>
  <line x1="118" y1="640.0" x2="1178" y2="640.0" stroke="#EEF2F7" stroke-width="1"/>
  <text x="102.0" y="644.0" font-size="11" font-family="Arial, Helvetica, sans-serif" fill="#667085" font-weight="400" text-anchor="end">0</text>
  <line x1="118" y1="521.4" x2="1178" y2="521.4" stroke="#EEF2F7" stroke-width="1"/>
  <text x="102.0" y="525.4" font-size="11" font-family="Arial, Helvetica, sans-serif" fill="#667085" font-weight="400" text-anchor="end">200</text>
  <line x1="118" y1="402.7" x2="1178" y2="402.7" stroke="#EEF2F7" stroke-width="1"/>
  <text x="102.0" y="406.7" font-size="11" font-family="Arial, Helvetica, sans-serif" fill="#667085" font-weight="400" text-anchor="end">400</text>
  <line x1="118" y1="284.1" x2="1178" y2="284.1" stroke="#EEF2F7" stroke-width="1"/>
  <text x="102.0" y="288.1" font-size="11" font-family="Arial, Helvetica, sans-serif" fill="#667085" font-weight="400" text-anchor="end">600</text>
  <line x1="118.0" y1="170" x2="118.0" y2="640" stroke="#F3F4F6" stroke-width="1"/>
  <text x="118.0" y="664.0" font-size="10" font-family="Arial, Helvetica, sans-serif" fill="#667085" font-weight="400" text-anchor="middle">1963</text>
  <line x1="204.9" y1="170" x2="204.9" y2="640" stroke="#F3F4F6" stroke-width="1"/>
  <text x="204.9" y="664.0" font-size="10" font-family="Arial, Helvetica, sans-serif" fill="#667085" font-weight="400" text-anchor="middle">1968</text>
  <line x1="291.8" y1="170" x2="291.8" y2="640" stroke="#F3F4F6" stroke-width="1"/>
  <text x="291.8" y="664.0" font-size="10" font-family="Arial, Helvetica, sans-serif" fill="#667085" font-weight="400" text-anchor="middle">1973</text>
  <line x1="378.7" y1="170" x2="378.7" y2="640" stroke="#F3F4F6" stroke-width="1"/>
  <text x="378.7" y="664.0" font-size="10" font-family="Arial, Helvetica, sans-serif" fill="#667085" font-weight="400" text-anchor="middle">1978</text>
  <line x1="465.5" y1="170" x2="465.5" y2="640" stroke="#F3F4F6" stroke-width="1"/>
  <text x="465.5" y="664.0" font-size="10" font-family="Arial, Helvetica, sans-serif" fill="#667085" font-weight="400" text-anchor="middle">1983</text>
  <line x1="552.4" y1="170" x2="552.4" y2="640" stroke="#F3F4F6" stroke-width="1"/>
  <text x="552.4" y="664.0" font-size="10" font-family="Arial, Helvetica, sans-serif" fill="#667085" font-weight="400" text-anchor="middle">1988</text>
  <line x1="639.3" y1="170" x2="639.3" y2="640" stroke="#F3F4F6" stroke-width="1"/>
  <text x="639.3" y="664.0" font-size="10" font-family="Arial, Helvetica, sans-serif" fill="#667085" font-weight="400" text-anchor="middle">1993</text>
  <line x1="726.2" y1="170" x2="726.2" y2="640" stroke="#F3F4F6" stroke-width="1"/>
  <text x="726.2" y="664.0" font-size="10" font-family="Arial, Helvetica, sans-serif" fill="#667085" font-weight="400" text-anchor="middle">1998</text>
  <line x1="813.1" y1="170" x2="813.1" y2="640" stroke="#F3F4F6" stroke-width="1"/>
  <text x="813.1" y="664.0" font-size="10" font-family="Arial, Helvetica, sans-serif" fill="#667085" font-weight="400" text-anchor="middle">2003</text>
  <line x1="900.0" y1="170" x2="900.0" y2="640" stroke="#F3F4F6" stroke-width="1"/>
  <text x="900.0" y="664.0" font-size="10" font-family="Arial, Helvetica, sans-serif" fill="#667085" font-weight="400" text-anchor="middle">2008</text>
  <line x1="986.9" y1="170" x2="986.9" y2="640" stroke="#F3F4F6" stroke-width="1"/>
  <text x="986.9" y="664.0" font-size="10" font-family="Arial, Helvetica, sans-serif" fill="#667085" font-weight="400" text-anchor="middle">2013</text>
  <line x1="1073.7" y1="170" x2="1073.7" y2="640" stroke="#F3F4F6" stroke-width="1"/>
  <text x="1073.7" y="664.0" font-size="10" font-family="Arial, Helvetica, sans-serif" fill="#667085" font-weight="400" text-anchor="middle">2018</text>
  <line x1="1160.6" y1="170" x2="1160.6" y2="640" stroke="#F3F4F6" stroke-width="1"/>
  <text x="1160.6" y="664.0" font-size="10" font-family="Arial, Helvetica, sans-serif" fill="#667085" font-weight="400" text-anchor="middle">2023</text>
  <polygon points="118.0,640.0 118.0,383.5 135.4,379.2 152.8,370.1 170.1,388.1 187.5,406.1 204.9,431.4 222.3,384.2 239.6,397.2 257.0,405.4 274.4,406.8 291.8,395.3 309.1,423.0 326.5,413.8 343.9,398.7 361.3,376.3 378.7,406.2 396.0,410.3 413.4,416.0 430.8,390.6 448.2,355.3 465.5,324.0 482.9,282.5 500.3,274.6 517.7,281.6 535.0,264.9 552.4,247.0 569.8,236.1 587.2,276.0 604.6,309.8 621.9,302.7 639.3,275.6 656.7,255.9 674.1,220.4 691.4,228.3 708.8,280.1 726.2,298.9 743.6,296.5 761.0,288.8 778.3,280.5 795.7,286.2 813.1,296.4 830.5,311.3 847.8,298.5 865.2,296.9 882.6,323.2 900.0,359.9 917.3,394.9 934.7,383.9 952.1,373.7 969.5,369.3 986.9,366.6 1004.2,364.2 1021.6,362.2 1039.0,361.4 1056.4,360.8 1073.7,353.0 1091.1,350.3 1108.5,349.7 1125.9,296.4 1143.2,258.0 1160.6,256.3 1178.0,246.3 1178.0,640.0" fill="#244A71" opacity="0.08"/>
  <polyline points="118.0,383.5 135.4,379.2 152.8,370.1 170.1,388.1 187.5,406.1 204.9,431.4 222.3,384.2 239.6,397.2 257.0,405.4 274.4,406.8 291.8,395.3 309.1,423.0 326.5,413.8 343.9,398.7 361.3,376.3 378.7,406.2 396.0,410.3 413.4,416.0 430.8,390.6 448.2,355.3 465.5,324.0 482.9,282.5 500.3,274.6 517.7,281.6 535.0,264.9 552.4,247.0 569.8,236.1 587.2,276.0 604.6,309.8 621.9,302.7 639.3,275.6 656.7,255.9 674.1,220.4 691.4,228.3 708.8,280.1 726.2,298.9 743.6,296.5 761.0,288.8 778.3,280.5 795.7,286.2 813.1,296.4 830.5,311.3 847.8,298.5 865.2,296.9 882.6,323.2 900.0,359.9 917.3,394.9 934.7,383.9 952.1,373.7 969.5,369.3 986.9,366.6 1004.2,364.2 1021.6,362.2 1039.0,361.4 1056.4,360.8 1073.7,353.0 1091.1,350.3 1108.5,349.7 1125.9,296.4 1143.2,258.0 1160.6,256.3 1178.0,246.3" fill="none" stroke="#244A71" stroke-width="4.5"/>
  <circle cx="118.0" cy="383.5" r="5.5" fill="#C8971D" stroke="#FFFFFF" stroke-width="2"/>
  <rect x="128.0" y="341.48043364918533" width="190" height="58" rx="16" fill="#FFFDF8" stroke="#E9E3D5"/>
  <text x="130.0" y="365.5" font-size="16" font-family="Arial, Helvetica, sans-serif" fill="#101828" font-weight="700" text-anchor="start">1963: 432 hours</text>
  <text x="130.0" y="387.5" font-size="12" font-family="Arial, Helvetica, sans-serif" fill="#667085" font-weight="400" text-anchor="start">about 0.9 summers</text>
  <circle cx="291.8" cy="395.3" r="5.5" fill="#C65A6A" stroke="#FFFFFF" stroke-width="2"/>
  <circle cx="465.5" cy="324.0" r="5.5" fill="#C65A6A" stroke="#FFFFFF" stroke-width="2"/>
  <circle cx="639.3" cy="275.6" r="5.5" fill="#C65A6A" stroke="#FFFFFF" stroke-width="2"/>
  <circle cx="813.1" cy="296.4" r="5.5" fill="#C65A6A" stroke="#FFFFFF" stroke-width="2"/>
  <circle cx="986.9" cy="366.6" r="5.5" fill="#C65A6A" stroke="#FFFFFF" stroke-width="2"/>
  <circle cx="1160.6" cy="256.3" r="5.5" fill="#C65A6A" stroke="#FFFFFF" stroke-width="2"/>
  <circle cx="1178.0" cy="246.3" r="5.5" fill="#C8971D" stroke="#FFFFFF" stroke-width="2"/>
  <rect x="976.0" y="248.30175345886477" width="190" height="58" rx="16" fill="#FFFDF8" stroke="#E9E3D5"/>
  <text x="1166.0" y="272.3" font-size="16" font-family="Arial, Helvetica, sans-serif" fill="#101828" font-weight="700" text-anchor="end">2024: 664 hours</text>
  <text x="1166.0" y="294.3" font-size="12" font-family="Arial, Helvetica, sans-serif" fill="#667085" font-weight="400" text-anchor="end">about 1.4 summers</text>
  <text x="118.0" y="688.0" font-size="11" font-family="Arial, Helvetica, sans-serif" fill="#667085" font-weight="400" text-anchor="start">Source notes: DOL minimum wage history; BLS CPI annual averages for used cars and motor vehicle insurance; EIA annual gasoline prices spliced from leaded regular through 1990 and all-grades gasoline thereafter; BLS Consumer Expenditure annual spending anchors for vehicle purchases, vehicle insurance, and gasoline / motor oil.</text>
  <text x="118.0" y="706.0" font-size="11" font-family="Arial, Helvetica, sans-serif" fill="#667085" font-weight="400" text-anchor="start">The result is an estimated annual cost of ownership divided by the federal minimum wage, expressed as work hours.</text>
  <rect x="118" y="748" width="360" height="190" rx="24" fill="#FFFFFF" stroke="#E5E7EB"/>
  <rect x="118" y="748" width="360" height="10" rx="10" fill="#244A71"/>
  <text x="142.0" y="790.0" font-size="14" font-family="Arial, Helvetica, sans-serif" fill="#667085" font-weight="700" text-anchor="start">1963 ownership basket</text>
  <text x="142.0" y="836.0" font-size="38" font-family="Arial, Helvetica, sans-serif" fill="#101828" font-weight="700" text-anchor="start">$512</text>
  <text x="142.0" y="870.0" font-size="13" font-family="Arial, Helvetica, sans-serif" fill="#667085" font-weight="400" text-anchor="start">432 hours at the federal minimum wage</text>
  <text x="142.0" y="896.0" font-size="13" font-family="Arial, Helvetica, sans-serif" fill="#667085" font-weight="400" text-anchor="start">10.8 weeks at 40 hours/week</text>
  <text x="142.0" y="922.0" font-size="13" font-family="Arial, Helvetica, sans-serif" fill="#667085" font-weight="400" text-anchor="start">0.9 summers at 12 weeks</text>
  <rect x="508" y="748" width="360" height="190" rx="24" fill="#FFFFFF" stroke="#E5E7EB"/>
  <rect x="508" y="748" width="360" height="10" rx="10" fill="#C65A6A"/>
  <text x="532.0" y="790.0" font-size="14" font-family="Arial, Helvetica, sans-serif" fill="#667085" font-weight="700" text-anchor="start">2024 ownership basket</text>
  <text x="532.0" y="836.0" font-size="38" font-family="Arial, Helvetica, sans-serif" fill="#101828" font-weight="700" text-anchor="start">$4812</text>
  <text x="532.0" y="870.0" font-size="13" font-family="Arial, Helvetica, sans-serif" fill="#667085" font-weight="400" text-anchor="start">664 hours at the federal minimum wage</text>
  <text x="532.0" y="896.0" font-size="13" font-family="Arial, Helvetica, sans-serif" fill="#667085" font-weight="400" text-anchor="start">16.6 weeks at 40 hours/week</text>
  <text x="532.0" y="922.0" font-size="13" font-family="Arial, Helvetica, sans-serif" fill="#667085" font-weight="400" text-anchor="start">1.4 summers at 12 weeks</text>
  <text x="118.0" y="986.0" font-size="11" font-family="Arial, Helvetica, sans-serif" fill="#667085" font-weight="400" text-anchor="start">Hours line = annual used-vehicle purchases + vehicle insurance + gasoline/motor oil spending, each backcast to the selected year from the nearest available annual spending anchor.</text>
</svg>