<svg xmlns="http://www.w3.org/2000/svg" width="1280" height="1040" viewBox="0 0 1280 1040" role="img" aria-labelledby="title desc">
<title id="title">Young adults living in the parental home, Census AD-1</title>
<desc id="desc">Two-panel line chart showing men and women ages 18-24 and 25-34 living in the parental home from 1960 to 2025.</desc>
<rect width="100%" height="100%" fill="#f6f1ea"/>
<defs><style>
.title{font:700 36px Georgia, "Times New Roman", serif; fill:#141414;}
.sub{font:400 16px Arial, sans-serif; fill:#5e564b;}
.panel{font:700 22px Arial, sans-serif; fill:#2a251f;}
.axis{font:700 14px Arial, sans-serif; fill:#5a5247;}
.tick{font:400 13px Arial, sans-serif; fill:#5f574c;}
.label{font:700 15px Arial, sans-serif; fill:#27231f;}
.small{font:400 12px Arial, sans-serif; fill:#6b6256;}
</style></defs>
<text x="72" y="66" class="title">Young adults living in the parental home</text>
<text x="72" y="96" class="sub">Census AD-1, 1960 to present. The 18-24 group stays high; the 25-34 group rises from a much lower base.</text>
<text x="72" y="162" class="panel">18-24 year olds</text>
<line x1="110" y1="510.0" x2="1210" y2="510.0" stroke="#d8cfc2" stroke-width="1.3" stroke-dasharray="5 5"/>
<text x="90" y="514.0" class="tick" text-anchor="end">0</text>
<line x1="110" y1="462.9" x2="1210" y2="462.9" stroke="#d8cfc2" stroke-width="1.3" stroke-dasharray="5 5"/>
<text x="90" y="466.9" class="tick" text-anchor="end">10</text>
<line x1="110" y1="415.7" x2="1210" y2="415.7" stroke="#d8cfc2" stroke-width="1.3" stroke-dasharray="5 5"/>
<text x="90" y="419.7" class="tick" text-anchor="end">20</text>
<line x1="110" y1="368.6" x2="1210" y2="368.6" stroke="#d8cfc2" stroke-width="1.3" stroke-dasharray="5 5"/>
<text x="90" y="372.6" class="tick" text-anchor="end">30</text>
<line x1="110" y1="321.4" x2="1210" y2="321.4" stroke="#d8cfc2" stroke-width="1.3" stroke-dasharray="5 5"/>
<text x="90" y="325.4" class="tick" text-anchor="end">40</text>
<line x1="110" y1="274.3" x2="1210" y2="274.3" stroke="#d8cfc2" stroke-width="1.3" stroke-dasharray="5 5"/>
<text x="90" y="278.3" class="tick" text-anchor="end">50</text>
<line x1="110" y1="227.1" x2="1210" y2="227.1" stroke="#d8cfc2" stroke-width="1.3" stroke-dasharray="5 5"/>
<text x="90" y="231.1" class="tick" text-anchor="end">60</text>
<line x1="110" y1="180.0" x2="1210" y2="180.0" stroke="#d8cfc2" stroke-width="1.3" stroke-dasharray="5 5"/>
<text x="90" y="184.0" class="tick" text-anchor="end">70</text>
<line x1="110.0" y1="510" x2="110.0" y2="516" stroke="#423d36" stroke-width="1"/>
<text x="110.0" y="534" class="axis" text-anchor="middle">1960</text>
<line x1="279.2" y1="510" x2="279.2" y2="516" stroke="#423d36" stroke-width="1"/>
<text x="279.2" y="534" class="axis" text-anchor="middle">1970</text>
<line x1="448.5" y1="510" x2="448.5" y2="516" stroke="#423d36" stroke-width="1"/>
<text x="448.5" y="534" class="axis" text-anchor="middle">1980</text>
<line x1="617.7" y1="510" x2="617.7" y2="516" stroke="#423d36" stroke-width="1"/>
<text x="617.7" y="534" class="axis" text-anchor="middle">1990</text>
<line x1="786.9" y1="510" x2="786.9" y2="516" stroke="#423d36" stroke-width="1"/>
<text x="786.9" y="534" class="axis" text-anchor="middle">2000</text>
<line x1="956.2" y1="510" x2="956.2" y2="516" stroke="#423d36" stroke-width="1"/>
<text x="956.2" y="534" class="axis" text-anchor="middle">2010</text>
<line x1="1125.4" y1="510" x2="1125.4" y2="516" stroke="#423d36" stroke-width="1"/>
<text x="1125.4" y="534" class="axis" text-anchor="middle">2020</text>
<line x1="1210.0" y1="510" x2="1210.0" y2="516" stroke="#423d36" stroke-width="1"/>
<text x="1210.0" y="534" class="axis" text-anchor="middle">2025</text>
<line x1="110" y1="510" x2="1210" y2="510" stroke="#3e382f" stroke-width="1.5"/>
<line x1="110" y1="180" x2="110" y2="510" stroke="#d9d0c4" stroke-width="1"/>
<path d="M110.0,263.0 L279.2,254.0 L448.5,254.0 L499.2,220.5 L516.2,219.1 L533.1,228.6 L550.0,232.8 L566.9,221.0 L583.8,223.8 L600.8,236.1 L617.7,236.1 L634.6,226.2 L651.5,225.3 L668.5,230.4 L685.4,229.5 L702.3,234.7 L719.2,231.9 L736.2,228.1 L753.1,233.7 L770.0,238.9 L786.9,240.8 L803.8,250.2 L820.8,249.3 L837.7,251.7 L854.6,243.6 L871.5,260.1 L888.5,256.8 L905.4,252.1 L922.3,245.5 L939.2,242.7 L956.2,239.9 L973.1,233.7 L973.1,232.3 L990.0,224.8 L1006.9,233.7 L1023.8,235.6 L1040.8,235.6 L1057.7,231.4 L1074.6,238.5 L1091.5,237.5 L1108.5,244.6 L1125.4,226.7 L1142.3,227.6 L1142.3,226.2 L1159.2,242.7 L1176.2,235.6 L1193.1,235.2 L1210.0,232.8" fill="none" stroke="#6c8e34" stroke-width="5" stroke-linecap="round" stroke-linejoin="round"/>
<text x="1226.0" y="222.8" class="label" fill="#6c8e34">Men 58.8%</text>
<path d="M110.0,345.5 L279.2,315.3 L448.5,308.7 L499.2,285.6 L516.2,289.4 L533.1,284.7 L550.0,289.8 L566.9,286.1 L583.8,281.8 L600.8,288.4 L617.7,285.1 L634.6,279.9 L651.5,283.7 L668.5,288.9 L685.4,291.7 L702.3,289.8 L719.2,283.7 L736.2,282.8 L753.1,286.1 L770.0,279.0 L786.9,288.0 L803.8,296.0 L820.8,293.1 L837.7,294.6 L854.6,290.8 L871.5,293.1 L888.5,289.8 L905.4,285.6 L922.3,282.8 L939.2,279.5 L956.2,278.1 L973.1,273.3 L973.1,272.9 L990.0,265.3 L1006.9,264.9 L1023.8,267.2 L1040.8,265.8 L1057.7,263.4 L1074.6,265.3 L1091.5,265.3 L1108.5,261.1 L1125.4,244.6 L1142.3,250.2 L1142.3,248.8 L1159.2,253.1 L1176.2,252.6 L1193.1,244.1 L1210.0,244.1" fill="none" stroke="#7c5ab7" stroke-width="5" stroke-linecap="round" stroke-linejoin="round"/>
<text x="1226.0" y="260.1" class="label" fill="#7c5ab7">Women 56.4%</text>
<circle cx="110.0" cy="263.0" r="4.8" fill="#6c8e34"/>
<circle cx="1210.0" cy="232.8" r="4.8" fill="#6c8e34"/>
<circle cx="110.0" cy="345.5" r="4.8" fill="#7c5ab7"/>
<circle cx="1210.0" cy="244.1" r="4.8" fill="#7c5ab7"/>
<text x="72" y="557" class="panel">25-34 year olds</text>
<line x1="110" y1="905.0" x2="1210" y2="905.0" stroke="#d8cfc2" stroke-width="1.3" stroke-dasharray="5 5"/>
<text x="90" y="909.0" class="tick" text-anchor="end">0</text>
<line x1="110" y1="839.0" x2="1210" y2="839.0" stroke="#d8cfc2" stroke-width="1.3" stroke-dasharray="5 5"/>
<text x="90" y="843.0" class="tick" text-anchor="end">5</text>
<line x1="110" y1="773.0" x2="1210" y2="773.0" stroke="#d8cfc2" stroke-width="1.3" stroke-dasharray="5 5"/>
<text x="90" y="777.0" class="tick" text-anchor="end">10</text>
<line x1="110" y1="707.0" x2="1210" y2="707.0" stroke="#d8cfc2" stroke-width="1.3" stroke-dasharray="5 5"/>
<text x="90" y="711.0" class="tick" text-anchor="end">15</text>
<line x1="110" y1="641.0" x2="1210" y2="641.0" stroke="#d8cfc2" stroke-width="1.3" stroke-dasharray="5 5"/>
<text x="90" y="645.0" class="tick" text-anchor="end">20</text>
<line x1="110" y1="575.0" x2="1210" y2="575.0" stroke="#d8cfc2" stroke-width="1.3" stroke-dasharray="5 5"/>
<text x="90" y="579.0" class="tick" text-anchor="end">25</text>
<line x1="110.0" y1="905" x2="110.0" y2="911" stroke="#423d36" stroke-width="1"/>
<text x="110.0" y="929" class="axis" text-anchor="middle">1960</text>
<line x1="279.2" y1="905" x2="279.2" y2="911" stroke="#423d36" stroke-width="1"/>
<text x="279.2" y="929" class="axis" text-anchor="middle">1970</text>
<line x1="448.5" y1="905" x2="448.5" y2="911" stroke="#423d36" stroke-width="1"/>
<text x="448.5" y="929" class="axis" text-anchor="middle">1980</text>
<line x1="617.7" y1="905" x2="617.7" y2="911" stroke="#423d36" stroke-width="1"/>
<text x="617.7" y="929" class="axis" text-anchor="middle">1990</text>
<line x1="786.9" y1="905" x2="786.9" y2="911" stroke="#423d36" stroke-width="1"/>
<text x="786.9" y="929" class="axis" text-anchor="middle">2000</text>
<line x1="956.2" y1="905" x2="956.2" y2="911" stroke="#423d36" stroke-width="1"/>
<text x="956.2" y="929" class="axis" text-anchor="middle">2010</text>
<line x1="1125.4" y1="905" x2="1125.4" y2="911" stroke="#423d36" stroke-width="1"/>
<text x="1125.4" y="929" class="axis" text-anchor="middle">2020</text>
<line x1="1210.0" y1="905" x2="1210.0" y2="911" stroke="#423d36" stroke-width="1"/>
<text x="1210.0" y="929" class="axis" text-anchor="middle">2025</text>
<line x1="110" y1="905" x2="1210" y2="905" stroke="#3e382f" stroke-width="1.5"/>
<line x1="110" y1="575" x2="110" y2="905" stroke="#d9d0c4" stroke-width="1"/>
<path d="M110.0,761.1 L279.2,779.6 L448.5,766.4 L499.2,724.2 L516.2,730.8 L533.1,729.4 L550.0,717.6 L566.9,713.6 L583.8,707.0 L600.8,712.3 L617.7,707.0 L634.6,708.3 L651.5,703.0 L668.5,696.4 L685.4,699.1 L702.3,701.7 L719.2,693.8 L736.2,713.6 L753.1,712.3 L770.0,721.5 L786.9,734.7 L803.8,732.1 L820.8,725.5 L837.7,726.8 L854.6,721.5 L871.5,726.8 L888.5,716.2 L905.4,717.6 L922.3,705.7 L939.2,699.1 L956.2,688.5 L973.1,679.3 L973.1,659.5 L990.0,681.9 L1006.9,683.2 L1023.8,671.4 L1040.8,664.8 L1057.7,646.3 L1074.6,646.3 L1091.5,630.8 L1108.5,635.7 L1125.4,614.6 L1142.3,637.0 L1142.3,631.8 L1159.2,658.2 L1176.2,645.0 L1193.1,658.2 L1210.0,651.6" fill="none" stroke="#6c8e34" stroke-width="5" stroke-linecap="round" stroke-linejoin="round"/>
<text x="1226.0" y="641.6" class="label" fill="#6c8e34">Men 19.2%</text>
<path d="M110.0,807.3 L279.2,817.9 L448.5,812.6 L499.2,804.7 L516.2,804.7 L533.1,799.4 L550.0,799.4 L566.9,803.4 L583.8,795.4 L600.8,800.7 L617.7,798.1 L634.6,790.2 L651.5,788.8 L668.5,788.8 L685.4,788.8 L702.3,792.8 L719.2,786.2 L736.2,791.5 L753.1,792.8 L770.0,791.5 L786.9,795.4 L803.8,798.1 L820.8,795.4 L837.7,812.6 L854.6,799.4 L871.5,798.1 L888.5,788.8 L905.4,782.2 L922.3,769.0 L939.2,774.3 L956.2,766.4 L973.1,777.0 L973.1,777.0 L990.0,767.7 L1006.9,758.5 L1023.8,750.6 L1040.8,745.3 L1057.7,740.0 L1074.6,740.0 L1091.5,735.7 L1108.5,732.1 L1125.4,728.1 L1142.3,730.8 L1142.3,730.8 L1159.2,741.3 L1176.2,742.6 L1193.1,734.7 L1210.0,725.5" fill="none" stroke="#7c5ab7" stroke-width="5" stroke-linecap="round" stroke-linejoin="round"/>
<text x="1226.0" y="741.5" class="label" fill="#7c5ab7">Women 13.6%</text>
<circle cx="110.0" cy="761.1" r="4.8" fill="#6c8e34"/>
<circle cx="1210.0" cy="651.6" r="4.8" fill="#6c8e34"/>
<circle cx="110.0" cy="807.3" r="4.8" fill="#7c5ab7"/>
<circle cx="1210.0" cy="725.5" r="4.8" fill="#7c5ab7"/>
<rect x="72" y="960" width="1136" height="48" rx="12" fill="#ffffff" opacity="0.92"/>
<text x="92" y="988" class="small">Source: U.S. Census Bureau, AD-1 Young Adults, 18-34 Years Old, Living At Home: 1960 to Present. Census counts unmarried college students in dormitories as living in the parental home in CPS-based figures.</text>
</svg>