<svg xmlns="http://www.w3.org/2000/svg" width="1280" height="980" viewBox="0 0 1280 980" role="img" aria-label="Insurance costs pulled away from general inflation">
  <defs>
    <linearGradient id="bgFade" x1="0" x2="1" y1="0" y2="1">
      <stop offset="0%" stop-color="#FFFDF8"/>
      <stop offset="100%" stop-color="#F7F2E8"/>
    </linearGradient>
    <filter id="softShadow" x="-20%" y="-20%" width="140%" height="140%">
      <feDropShadow dx="0" dy="8" stdDeviation="12" flood-color="#0D1321" flood-opacity="0.10"/>
    </filter>
  </defs>
  <rect x="0" y="0" width="1280" height="980" rx="30" fill="url(#bgFade)"/>
  <g filter="url(#softShadow)">
    <rect x="22" y="22" width="1236" height="936" rx="24" fill="white" opacity="0.88"/>
  </g>
  <text x="52" y="72" font-size="30" font-family="Georgia, 'Times New Roman', serif" font-weight="700" fill="#101828">Insurance costs pulled away from general inflation</text>
  <text x="52" y="102" font-size="14" font-family="Arial, Helvetica, sans-serif" fill="#475467">A clear CPI comparison for the story package.</text>
  <text x="120.0" y="132.0" font-size="13" font-family="Arial, Helvetica, sans-serif" fill="#667085" font-weight="400" text-anchor="start">Motor vehicle insurance outpaced general inflation</text>
  <text x="120.0" y="154.0" font-size="18" font-family="Arial, Helvetica, sans-serif" fill="#101828" font-weight="700" text-anchor="start">Annual CPI-U averages indexed to 1960 = 100, using BLS all-items and motor vehicle insurance series.</text>
  <text x="120.0" y="178.0" font-size="13" font-family="Arial, Helvetica, sans-serif" fill="#667085" font-weight="400" text-anchor="start">BLS CPI-U series CUUR0000SA0 vs CUUR0000SETE. The gap widens sharply after 2021.</text>
  <line x1="120" y1="640.0" x2="1140" y2="640.0" stroke="#E5E7EB" stroke-width="1"/>
  <text x="102.0" y="644.0" font-size="11" font-family="Arial, Helvetica, sans-serif" fill="#667085" font-weight="400" text-anchor="end">100</text>
  <line x1="120" y1="551.4" x2="1140" y2="551.4" stroke="#E5E7EB" stroke-width="1"/>
  <text x="102.0" y="555.4" font-size="11" font-family="Arial, Helvetica, sans-serif" fill="#667085" font-weight="400" text-anchor="end">200</text>
  <line x1="120" y1="434.2" x2="1140" y2="434.2" stroke="#E5E7EB" stroke-width="1"/>
  <text x="102.0" y="438.2" font-size="11" font-family="Arial, Helvetica, sans-serif" fill="#667085" font-weight="400" text-anchor="end">500</text>
  <line x1="120" y1="345.5" x2="1140" y2="345.5" stroke="#E5E7EB" stroke-width="1"/>
  <text x="102.0" y="349.5" font-size="11" font-family="Arial, Helvetica, sans-serif" fill="#667085" font-weight="400" text-anchor="end">1000</text>
  <line x1="120" y1="256.9" x2="1140" y2="256.9" stroke="#E5E7EB" stroke-width="1"/>
  <text x="102.0" y="260.9" font-size="11" font-family="Arial, Helvetica, sans-serif" fill="#667085" font-weight="400" text-anchor="end">2000</text>
  <line x1="120" y1="185.3" x2="1140" y2="185.3" stroke="#E5E7EB" stroke-width="1"/>
  <text x="102.0" y="189.3" font-size="11" font-family="Arial, Helvetica, sans-serif" fill="#667085" font-weight="400" text-anchor="end">3500</text>
  <line x1="120.0" y1="180" x2="120.0" y2="640" stroke="#F2F4F7" stroke-width="1"/>
  <text x="120.0" y="664.0" font-size="10" font-family="Arial, Helvetica, sans-serif" fill="#667085" font-weight="400" text-anchor="middle">1960</text>
  <line x1="198.5" y1="180" x2="198.5" y2="640" stroke="#F2F4F7" stroke-width="1"/>
  <text x="198.5" y="664.0" font-size="10" font-family="Arial, Helvetica, sans-serif" fill="#667085" font-weight="400" text-anchor="middle">1965</text>
  <line x1="276.9" y1="180" x2="276.9" y2="640" stroke="#F2F4F7" stroke-width="1"/>
  <text x="276.9" y="664.0" font-size="10" font-family="Arial, Helvetica, sans-serif" fill="#667085" font-weight="400" text-anchor="middle">1970</text>
  <line x1="355.4" y1="180" x2="355.4" y2="640" stroke="#F2F4F7" stroke-width="1"/>
  <text x="355.4" y="664.0" font-size="10" font-family="Arial, Helvetica, sans-serif" fill="#667085" font-weight="400" text-anchor="middle">1975</text>
  <line x1="433.8" y1="180" x2="433.8" y2="640" stroke="#F2F4F7" stroke-width="1"/>
  <text x="433.8" y="664.0" font-size="10" font-family="Arial, Helvetica, sans-serif" fill="#667085" font-weight="400" text-anchor="middle">1980</text>
  <line x1="512.3" y1="180" x2="512.3" y2="640" stroke="#F2F4F7" stroke-width="1"/>
  <text x="512.3" y="664.0" font-size="10" font-family="Arial, Helvetica, sans-serif" fill="#667085" font-weight="400" text-anchor="middle">1985</text>
  <line x1="590.8" y1="180" x2="590.8" y2="640" stroke="#F2F4F7" stroke-width="1"/>
  <text x="590.8" y="664.0" font-size="10" font-family="Arial, Helvetica, sans-serif" fill="#667085" font-weight="400" text-anchor="middle">1990</text>
  <line x1="669.2" y1="180" x2="669.2" y2="640" stroke="#F2F4F7" stroke-width="1"/>
  <text x="669.2" y="664.0" font-size="10" font-family="Arial, Helvetica, sans-serif" fill="#667085" font-weight="400" text-anchor="middle">1995</text>
  <line x1="747.7" y1="180" x2="747.7" y2="640" stroke="#F2F4F7" stroke-width="1"/>
  <text x="747.7" y="664.0" font-size="10" font-family="Arial, Helvetica, sans-serif" fill="#667085" font-weight="400" text-anchor="middle">2000</text>
  <line x1="826.2" y1="180" x2="826.2" y2="640" stroke="#F2F4F7" stroke-width="1"/>
  <text x="826.2" y="664.0" font-size="10" font-family="Arial, Helvetica, sans-serif" fill="#667085" font-weight="400" text-anchor="middle">2005</text>
  <line x1="904.6" y1="180" x2="904.6" y2="640" stroke="#F2F4F7" stroke-width="1"/>
  <text x="904.6" y="664.0" font-size="10" font-family="Arial, Helvetica, sans-serif" fill="#667085" font-weight="400" text-anchor="middle">2010</text>
  <line x1="983.1" y1="180" x2="983.1" y2="640" stroke="#F2F4F7" stroke-width="1"/>
  <text x="983.1" y="664.0" font-size="10" font-family="Arial, Helvetica, sans-serif" fill="#667085" font-weight="400" text-anchor="middle">2015</text>
  <line x1="1061.5" y1="180" x2="1061.5" y2="640" stroke="#F2F4F7" stroke-width="1"/>
  <text x="1061.5" y="664.0" font-size="10" font-family="Arial, Helvetica, sans-serif" fill="#667085" font-weight="400" text-anchor="middle">2020</text>
  <line x1="1140.0" y1="180" x2="1140.0" y2="640" stroke="#F2F4F7" stroke-width="1"/>
  <text x="1140.0" y="664.0" font-size="10" font-family="Arial, Helvetica, sans-serif" fill="#667085" font-weight="400" text-anchor="middle">2025</text>
  <polygon points="120.0,640.0 120.0,640.0 135.7,638.8 151.4,639.4 167.1,638.1 182.8,633.8 198.5,623.3 214.2,611.2 229.8,607.5 245.5,604.7 261.2,593.5 276.9,577.1 292.6,563.3 308.3,563.8 324.0,566.1 339.7,566.0 355.4,559.1 371.1,526.6 386.8,512.1 402.5,508.4 418.2,501.6 433.8,491.5 449.5,485.6 465.2,477.6 480.9,465.7 496.6,456.1 512.3,443.7 528.0,427.8 543.7,417.6 559.4,408.8 575.1,400.9 590.8,392.5 606.5,383.1 622.2,374.1 637.8,367.3 653.5,362.6 669.2,357.3 684.9,352.2 700.6,348.2 716.3,346.8 732.0,347.0 747.7,345.6 763.4,340.0 779.1,329.3 794.8,319.7 810.5,316.2 826.2,313.5 841.8,312.8 857.5,312.3 873.2,309.1 888.9,303.4 904.6,297.1 920.3,292.6 936.0,288.1 951.7,282.8 967.4,277.5 983.1,270.8 998.8,263.2 1014.5,253.6 1030.2,244.5 1045.8,243.4 1061.5,249.4 1077.2,244.7 1092.9,235.0 1108.6,214.4 1124.3,193.5 1140.0,186.2 1140.0,640.0" fill="#C65A6A" opacity="0.10"/>
  <polyline points="120.0,640.0 135.7,638.7 151.4,637.1 167.1,635.5 182.8,633.9 198.5,631.9 214.2,628.1 229.8,624.6 245.5,619.3 261.2,612.5 276.9,605.2 292.6,599.9 308.3,595.7 324.0,588.1 339.7,574.6 355.4,563.5 371.1,556.3 386.8,548.3 402.5,538.9 418.2,525.2 433.8,509.0 449.5,496.4 465.2,488.8 480.9,484.7 496.6,479.4 512.3,474.9 528.0,472.5 543.7,467.9 559.4,462.8 575.1,456.8 590.8,450.0 606.5,444.7 622.2,440.9 637.8,437.2 653.5,433.9 669.2,430.4 684.9,426.7 700.6,423.7 716.3,421.7 732.0,419.0 747.7,414.7 763.4,411.2 779.1,409.2 794.8,406.3 810.5,402.9 826.2,398.6 841.8,394.6 857.5,391.0 873.2,386.2 888.9,386.6 904.6,384.5 920.3,380.6 936.0,377.9 951.7,376.1 967.4,374.0 983.1,373.9 998.8,372.3 1014.5,369.6 1030.2,366.5 1045.8,364.2 1061.5,362.6 1077.2,356.8 1092.9,346.9 1108.6,341.8 1124.3,338.0 1140.0,334.6" fill="none" stroke="#64748B" stroke-width="3.5" stroke-dasharray="8 5"/>
  <polyline points="120.0,640.0 135.7,638.8 151.4,639.4 167.1,638.1 182.8,633.8 198.5,623.3 214.2,611.2 229.8,607.5 245.5,604.7 261.2,593.5 276.9,577.1 292.6,563.3 308.3,563.8 324.0,566.1 339.7,566.0 355.4,559.1 371.1,526.6 386.8,512.1 402.5,508.4 418.2,501.6 433.8,491.5 449.5,485.6 465.2,477.6 480.9,465.7 496.6,456.1 512.3,443.7 528.0,427.8 543.7,417.6 559.4,408.8 575.1,400.9 590.8,392.5 606.5,383.1 622.2,374.1 637.8,367.3 653.5,362.6 669.2,357.3 684.9,352.2 700.6,348.2 716.3,346.8 732.0,347.0 747.7,345.6 763.4,340.0 779.1,329.3 794.8,319.7 810.5,316.2 826.2,313.5 841.8,312.8 857.5,312.3 873.2,309.1 888.9,303.4 904.6,297.1 920.3,292.6 936.0,288.1 951.7,282.8 967.4,277.5 983.1,270.8 998.8,263.2 1014.5,253.6 1030.2,244.5 1045.8,243.4 1061.5,249.4 1077.2,244.7 1092.9,235.0 1108.6,214.4 1124.3,193.5 1140.0,186.2" fill="none" stroke="#C65A6A" stroke-width="5"/>
  <circle cx="120.0" cy="640.0" r="5" fill="#64748B" stroke="#fff" stroke-width="2"/>
  <circle cx="1140.0" cy="334.6" r="5" fill="#64748B" stroke="#fff" stroke-width="2"/>
  <circle cx="120.0" cy="640.0" r="5" fill="#C65A6A" stroke="#fff" stroke-width="2"/>
  <circle cx="1140.0" cy="186.2" r="5" fill="#C65A6A" stroke="#fff" stroke-width="2"/>
  <rect x="120" y="702" width="310" height="190" rx="22" fill="#FFFFFF" stroke="#E5E7EB"/>
  <text x="275.0" y="736.0" font-size="13" font-family="Arial, Helvetica, sans-serif" fill="#667085" font-weight="700" text-anchor="middle">All items</text>
  <text x="275.0" y="782.0" font-size="36" font-family="Arial, Helvetica, sans-serif" fill="#64748B" font-weight="700" text-anchor="middle">+989.2%</text>
  <text x="275.0" y="814.0" font-size="12" font-family="Arial, Helvetica, sans-serif" fill="#101828" font-weight="400" text-anchor="middle">Inflation since 1960</text>
  <text x="275.0" y="840.0" font-size="12" font-family="Arial, Helvetica, sans-serif" fill="#667085" font-weight="400" text-anchor="middle">2025 index: 1089.2</text>
  <rect x="455" y="702" width="330" height="190" rx="22" fill="#FFF7F8" stroke="#E5E7EB"/>
  <text x="620.0" y="736.0" font-size="13" font-family="Arial, Helvetica, sans-serif" fill="#C65A6A" font-weight="700" text-anchor="middle">Motor vehicle insurance</text>
  <text x="620.0" y="782.0" font-size="36" font-family="Arial, Helvetica, sans-serif" fill="#C65A6A" font-weight="700" text-anchor="middle">+3375.5%</text>
  <text x="620.0" y="814.0" font-size="12" font-family="Arial, Helvetica, sans-serif" fill="#101828" font-weight="400" text-anchor="middle">Insurance cost inflation since 1960</text>
  <text x="620.0" y="840.0" font-size="12" font-family="Arial, Helvetica, sans-serif" fill="#667085" font-weight="400" text-anchor="middle">2025 index: 3475.5</text>
  <rect x="825" y="702" width="335" height="190" rx="22" fill="#FFFFFF" stroke="#E5E7EB"/>
  <text x="992.0" y="736.0" font-size="13" font-family="Arial, Helvetica, sans-serif" fill="#667085" font-weight="700" text-anchor="middle">The spread</text>
  <text x="992.0" y="782.0" font-size="36" font-family="Arial, Helvetica, sans-serif" fill="#244A71" font-weight="700" text-anchor="middle">3.4x</text>
  <text x="992.0" y="814.0" font-size="12" font-family="Arial, Helvetica, sans-serif" fill="#101828" font-weight="400" text-anchor="middle">Insurance rose roughly this much faster</text>
  <text x="992.0" y="840.0" font-size="12" font-family="Arial, Helvetica, sans-serif" fill="#667085" font-weight="400" text-anchor="middle">Use this as the visual headline.</text>
  <text x="120.0" y="930.0" font-size="11" font-family="Arial, Helvetica, sans-serif" fill="#667085" font-weight="400" text-anchor="start">Source: BLS CPI-U annual averages from the BLS-sourced yearly tables for CUUR0000SA0 and CUUR0000SETE.</text>
  <text x="120.0" y="952.0" font-size="11" font-family="Arial, Helvetica, sans-serif" fill="#667085" font-weight="400" text-anchor="start">Indexed to 1960 = 100 to show the divergence cleanly.</text>
</svg>